<svg width="24" height="24" viewBox="0 0 24 24" fill="none" xmlns="http://www.w3.org/2000/svg">
<path fill-rule="evenodd" clip-rule="evenodd" d="M8.3541 2.89575H5.65876C4.13667 2.90517 2.90505 4.16246 2.89583 5.71628V8.46779C2.90509 10.0202 4.13804 11.275 5.65876 11.2797H8.3541C9.0861 11.282 9.78889 10.9867 10.3073 10.4592C10.8257 9.93158 11.117 9.21505 11.117 8.46779V5.71628C11.1124 4.16051 9.8781 2.90049 8.3541 2.89575ZM9.62968 8.4678C9.63419 8.81701 9.50203 9.15362 9.26251 9.40299C9.023 9.65235 8.69592 9.79386 8.35383 9.79612H5.65849C5.3113 9.80324 4.97627 9.66558 4.73072 9.41491C4.48517 9.16424 4.35032 8.82223 4.35729 8.4678V5.71629C4.35722 5.36633 4.49511 5.03106 4.73989 4.78605C4.98467 4.54103 5.31574 4.40689 5.65849 4.41384H8.35383C9.05654 4.41855 9.62507 4.99892 9.62968 5.71629V8.4678ZM21.0955 5.71636V8.45925C21.1046 9.20503 20.823 9.92391 20.3127 10.4577C19.8025 10.9915 19.1054 11.2966 18.3748 11.3057H17.2595C16.8817 11.2644 16.5951 10.9389 16.5951 10.5509C16.5951 10.163 16.8817 9.83749 17.2595 9.7962H18.3411C18.6832 9.79393 19.0102 9.65242 19.2497 9.40306C19.4893 9.15369 19.6214 8.81708 19.6169 8.46788V5.71636C19.6078 5.00092 19.0419 4.42321 18.3411 4.41391H15.6457C14.9411 4.41391 14.3699 4.99704 14.3699 5.71636V9.8307C14.3561 10.2479 14.0183 10.5774 13.6094 10.5725C13.4129 10.568 13.2264 10.4834 13.0915 10.3375C12.9565 10.1917 12.8844 9.9967 12.8912 9.7962V5.71636C12.889 4.9691 13.1782 4.25167 13.695 3.72247C14.2118 3.19327 14.9137 2.89583 15.6457 2.89583H18.3411C19.8505 2.93242 21.0643 4.17535 21.0955 5.71636ZM15.6457 12.7202H18.3411C19.8618 12.7249 21.0947 13.9797 21.104 15.5321V18.2836C21.0948 19.8374 19.8632 21.0947 18.3411 21.1041H15.6457C14.125 21.0946 12.8959 19.836 12.8913 18.2836V15.5321C12.8913 13.9791 14.1245 12.7202 15.6457 12.7202ZM19.2456 19.2071C19.4854 18.9624 19.6191 18.6298 19.6168 18.2836V15.5321C19.6168 15.1867 19.4824 14.8554 19.2431 14.6111C19.0039 14.3669 18.6793 14.2297 18.341 14.2297H15.6456C14.941 14.2297 14.3698 14.8128 14.3698 15.5321V18.2836C14.3675 18.6298 14.5012 18.9624 14.741 19.2071C14.9807 19.4519 15.3066 19.5884 15.6456 19.5861H18.341C18.68 19.5884 19.0059 19.4519 19.2456 19.2071ZM2.89567 18.2751V15.5322C2.89566 14.7849 3.18703 14.0684 3.70542 13.5408C4.22382 13.0132 4.9266 12.718 5.6586 12.7203H6.76546C7.04847 12.6893 7.32394 12.826 7.47492 13.0724C7.6259 13.3187 7.6259 13.6313 7.47492 13.8776C7.32394 14.1239 7.04847 14.2607 6.76546 14.2297H5.6586C4.95259 14.2297 4.37895 14.8115 4.3743 15.5322V18.2492C4.39225 18.9641 4.95816 19.538 5.6586 19.5516H8.37084C8.71068 19.5539 9.03737 19.4177 9.27847 19.1732C9.51957 18.9287 9.65515 18.5961 9.65514 18.2492V14.1693C9.60003 13.8647 9.73185 13.5564 9.98816 13.3905C10.2445 13.2246 10.5738 13.2343 10.8203 13.4152C11.0667 13.596 11.1808 13.9116 11.1084 14.2125V18.2751C11.1084 19.8328 9.87142 21.0956 8.34549 21.0956H5.6586C4.14586 21.0635 2.92705 19.8193 2.89567 18.2751Z" fill="white"/>
</svg>
