<svg width="15" height="15" viewBox="0 0 15 15" fill="none" xmlns="http://www.w3.org/2000/svg">
<path d="M13.2614 7.92243C13.525 7.92243 13.7386 7.7087 13.7386 7.44505V6.80854C13.7386 4.28443 12.6142 3.0553 10.3106 3.0553H8.61034C8.33355 3.05661 8.07195 2.9288 7.9028 2.70961L7.35433 1.97981C7 1.52496 6.45534 1.2596 5.87892 1.26099H4.68324C2.41255 1.26099 1.26074 2.57243 1.26074 5.16238V9.84295C1.26074 12.2463 2.7526 13.7389 5.16042 13.7389H9.83345C12.2358 13.7389 13.7331 12.2463 13.7331 9.84295C13.7069 9.59756 13.4999 9.41148 13.2532 9.41148C13.0065 9.41148 12.7995 9.59756 12.7733 9.84295C12.7733 11.736 11.7312 12.7841 9.83345 12.7841H5.15493C3.2572 12.7841 2.21509 11.7415 2.21509 9.84295V9.38751H9.89378C10.1573 9.38751 10.371 9.17378 10.371 8.91013C10.371 8.64648 10.1573 8.43274 9.89378 8.43274H2.21509V5.14043C2.21509 3.07725 2.95005 2.19381 4.67776 2.19381H5.88441C6.16118 2.19791 6.42125 2.32699 6.59194 2.54499L7.14042 3.2693C7.48855 3.73082 8.03241 4.00287 8.61034 4.00458H10.3051C12.0877 4.00458 12.7788 4.80023 12.7788 6.80854V7.44505C12.7788 7.57262 12.8298 7.69488 12.9205 7.78457C13.0111 7.87425 13.1339 7.9239 13.2614 7.92243Z" fill="#815250"/>
</svg>
