<svg width="577" height="680" viewBox="0 0 577 680" fill="none" xmlns="http://www.w3.org/2000/svg">
<mask id="mask0_305_955" style="mask-type:alpha" maskUnits="userSpaceOnUse" x="2" y="0" width="575" height="680">
<path d="M294.814 334.591C501.754 220.292 576.995 0.375488 576.995 0.375488V663.079C576.995 671.916 569.831 679.079 560.995 679.079L2.41016 679.079C2.41016 679.079 87.8746 448.89 294.814 334.591Z" fill="#3E546C"/>
</mask>
<g mask="url(#mask0_305_955)">
<rect x="-25.5479" y="-11.1934" width="676.776" height="724.979" fill="white"/>
<path d="M250.658 320.446C114.531 332.4 48.364 283.329 32.2962 257.3L-58.3262 249.105L-126.293 745.6C111.993 749.456 588.949 756.88 590.492 755.723C592.034 754.566 642.23 581.066 667.135 494.46C643.194 415.407 578.151 253.636 509.51 238.982C423.708 220.665 420.816 305.503 250.658 320.446Z" fill="#F0CF93"/>
<path d="M104.601 426.493C63.3393 457.344 -0.96405 420.066 -27.958 397.571L-83.8739 815.495L623.752 808.746L600.132 457.344C582.94 443.847 544.506 416.853 528.309 416.853C508.064 416.853 442.025 457.344 407.801 457.344C373.576 457.344 382.253 416.853 367.31 416.853C352.367 416.853 332.121 443.365 313.322 443.365C294.523 443.365 299.825 383.11 276.206 383.11C252.586 383.11 252.104 441.919 221.736 448.185C191.368 454.451 156.179 387.931 104.601 426.493Z" fill="#E9A77B"/>
<path d="M110.5 453.5L209 509.885L267.5 459L309.466 509.885L522.525 463.128L602.06 498.799" stroke="#CD7356" stroke-width="0.964068"/>
<path d="M159 423L397.196 328.641L485.408 256.818L590.974 350.332" stroke="#E9A77B" stroke-width="0.964068"/>
<path d="M101.709 553.268C69.3165 553.268 19.7634 575.763 -0.964043 587.011L-80.9817 612.077V766.327L621.342 756.205L616.521 561.463C592.581 545.235 530.912 512.778 475.768 512.778C406.837 512.778 294.041 590.867 257.406 590.867C220.772 590.867 142.2 553.268 101.709 553.268Z" fill="#CD7356"/>
<rect x="80.4996" y="614.487" width="52.0597" height="1.92814" fill="#FCDFB8"/>
<rect x="80.4996" y="637.625" width="24.1017" height="1.92814" fill="#FCDFB8"/>
<rect x="80.4996" y="622.199" width="52.0597" height="0.964068" fill="#FCDFB8"/>
<rect x="80.4996" y="629.912" width="52.0597" height="0.964068" fill="#FCDFB8"/>
<circle cx="120.508" cy="639.071" r="1.4461" fill="#FCDFB8"/>
<circle cx="120.508" cy="639.071" r="1.4461" fill="#FCDFB8"/>
<circle cx="120.508" cy="639.071" r="1.4461" fill="#FCDFB8"/>
<circle cx="309.948" cy="603.882" r="0.964068" fill="#FCDFB8"/>
<circle cx="309.948" cy="603.882" r="0.964068" fill="#FCDFB8"/>
<circle cx="309.948" cy="603.882" r="0.964068" fill="#FCDFB8"/>
<circle cx="276.205" cy="397.571" r="1.92814" fill="#FCDFB8"/>
<circle cx="276.205" cy="397.571" r="1.92814" fill="#FCDFB8"/>
<circle cx="276.205" cy="397.571" r="1.92814" fill="#FCDFB8"/>
<circle cx="432.384" cy="550.858" r="0.964068" fill="#FCDFB8"/>
<circle cx="432.384" cy="550.858" r="0.964068" fill="#FCDFB8"/>
<circle cx="432.384" cy="550.858" r="0.964068" fill="#FCDFB8"/>
<circle cx="436.723" cy="552.304" r="0.482034" fill="#FCDFB8"/>
<circle cx="436.723" cy="552.304" r="0.482034" fill="#FCDFB8"/>
<circle cx="436.723" cy="552.304" r="0.482034" fill="#FCDFB8"/>
<path d="M432.975 551.473L431.529 594.856C431.851 600.158 433.361 612.113 436.832 617.511C440.302 622.91 435.707 631.008 432.975 634.383L446.347 677.766" stroke="black" stroke-width="0.964068"/>
<path d="M441.045 678.248C443.294 663.305 446.472 633.322 446.472 621.368C446.472 609.413 443.901 594.534 442.616 588.589C443.901 586.179 446.472 579.141 446.472 570.272C446.472 559.185 454.185 533.637 455.631 528.817M444.419 678.73C461.29 653.343 494.965 602.472 496.122 592.446C497.568 579.913 496.122 527.371 510.101 504.233" stroke="black" stroke-width="0.964068"/>
<path d="M439.724 551.955C445.187 541.189 446.087 518.502 405.982 513.874C413.052 518.694 429.698 533.059 439.724 551.955Z" fill="#233254"/>
<path d="M405.982 513.874C405.5 524.8 411.574 547.713 439.724 551.955C429.698 533.059 413.052 518.694 405.982 513.874Z" fill="#1F2C4D"/>
<path d="M453.531 533.814C465.531 535.141 487.085 528.002 477.308 488.832C475.283 497.146 467.692 517.782 453.531 533.814Z" fill="#233254"/>
<path d="M477.308 488.832C466.911 492.225 447.599 505.97 453.531 533.814C467.692 517.782 475.283 497.146 477.308 488.832Z" fill="#1F2C4D"/>
<path d="M439.75 633.901C445.213 623.135 446.113 600.447 406.007 595.82C413.077 600.64 429.724 615.005 439.75 633.901Z" fill="#233254"/>
<path d="M406.007 595.82C405.525 606.746 411.599 629.659 439.75 633.901C429.724 615.005 413.077 600.64 406.007 595.82Z" fill="#1F2C4D"/>
<path d="M433.947 595.819C449.373 584.25 442.689 559.158 402.44 556.013C409.683 560.569 423.231 577.306 433.947 595.819Z" fill="#233254"/>
<path d="M402.44 556.013C402.362 566.949 398.269 577.984 433.947 595.819C423.231 577.306 409.683 560.569 402.44 556.013Z" fill="#1F2C4D"/>
<path d="M459.005 568.826C453.606 580.395 464.789 582.323 471.056 581.841C474.751 581.037 490.241 574.61 522.634 555.329C555.026 536.048 565.374 513.553 566.499 504.715C562 503.109 545.096 502.691 513.475 513.874C473.948 527.853 465.753 554.365 459.005 568.826Z" fill="#2C4F6A"/>
<path d="M566.499 505.197L459.487 578.467C464.308 584.733 485.035 580.877 524.562 553.883C556.183 532.288 565.695 512.428 566.499 505.197Z" fill="url(#paint0_linear_305_955)"/>
<path d="M435.702 671.049C434.165 684.263 445.965 684.514 453.198 670.535C456.485 668.62 471.594 655.272 496.562 626.224C521.53 597.177 520.216 583.722 518.517 574.529C513.703 574.27 497.305 569.852 470.532 590.554C437.065 616.431 437.622 654.532 435.702 671.049Z" fill="url(#paint1_linear_305_955)"/>
<path d="M518.669 575.012C518.669 575.012 490.295 593.446 472.942 616.584C455.589 639.721 439.192 680.565 439.192 680.565C445.778 685.397 467.184 665.625 496.562 626.707C520.064 595.572 520.171 582.498 518.669 575.012Z" fill="url(#paint2_linear_305_955)"/>
<path d="M507.387 497.851C505.685 507.735 513.839 507.448 518.128 506.069C520.565 504.851 530.232 497.36 549.405 477.141C568.578 456.923 571.783 437.728 570.988 430.658C567.559 430.126 555.681 432.506 535.6 446.288C510.497 463.515 509.514 485.496 507.387 497.851Z" fill="#2C4F6A"/>
<path d="M571.074 431.034L509.447 505.29C513.933 509.404 527.717 503.079 550.493 475.705C568.714 453.806 571.806 436.8 571.074 431.034Z" fill="url(#paint3_linear_305_955)"/>
<circle cx="547.892" cy="578.471" r="2.72207" fill="#F0CF93" stroke="#F0945B" stroke-width="0.340259"/>
<path d="M350.435 678.907L349.049 660.43H341.658L339.81 665.511C332.42 676.136 315.79 675.674 311.171 676.136C307.476 676.505 307.476 678.445 307.938 679.369L350.435 678.907Z" fill="url(#paint4_linear_305_955)"/>
<path d="M408.175 666.897V659.044H418.799L422.957 678.907H379.074C380.46 677.521 384.802 674.657 391.084 674.288C397.366 673.918 405.096 669.207 408.175 666.897Z" fill="url(#paint5_linear_305_955)"/>
<path d="M391.084 470.118L332.42 471.965C328.355 500.05 328.262 540.946 328.724 557.883L339.81 661.354C341.042 664.125 350.435 661.354 350.435 661.354C355.978 654.702 361.675 585.906 363.83 552.34L350.435 496.909C356.132 516.156 368.819 559.454 373.993 578.67C379.166 597.886 398.321 642.107 407.251 661.816L420.185 661.354C420.493 654.271 418.615 630.313 408.637 591.142C398.659 551.97 392.778 494.138 391.084 470.118Z" fill="url(#paint6_linear_305_955)"/>
<path d="M362.445 365.261V355.099L374.455 347.708V359.256C374.455 362.582 376.302 364.03 377.226 364.337L379.998 368.033L389.698 372.652L362.907 381.891L355.516 374.5C356.902 373.268 359.858 370.527 360.597 369.419C361.336 368.31 362.137 366.185 362.445 365.261Z" fill="url(#paint7_linear_305_955)"/>
<path d="M370.297 359.718C368.08 362.305 364.138 364.491 362.445 365.261V358.794L374.455 350.942L373.993 354.175C373.685 354.945 372.515 357.131 370.297 359.718Z" fill="url(#paint8_linear_305_955)"/>
<path d="M361.059 367.571L353.206 369.88L344.892 377.733L336.115 417.92L333.343 471.042L373.069 470.118L383.693 368.495L376.764 364.337C373.377 367.263 366.14 373.022 364.292 372.652C362.445 372.282 361.367 369.111 361.059 367.571Z" fill="url(#paint9_linear_305_955)"/>
<path d="M347.201 448.407C347.201 448.407 349.049 418.382 361.059 377.271H362.907L353.206 449.331L349.049 454.874L347.201 448.407Z" fill="#283554"/>
<path d="M360.135 375.886L364.292 372.652L365.216 377.271L361.059 379.581L360.135 375.886Z" fill="#283554"/>
<path d="M367.064 401.753L378.15 364.8C379.536 365.723 382.862 367.756 385.079 368.495C395.056 371.082 401.246 374.192 403.094 375.424C401.708 389.281 398.659 424.11 397.551 452.565C396.165 488.133 404.48 503.838 401.246 505.224C398.659 506.333 395.241 503.838 393.855 502.453C380.552 508.735 371.683 501.375 368.912 496.91C366.294 493.06 360.967 480.927 360.597 463.189C360.228 445.451 364.754 414.841 367.064 401.753Z" fill="url(#paint10_linear_305_955)"/>
<path d="M349.972 457.646C349.603 455.798 352.898 455.028 354.592 454.874L356.44 453.027C357.209 452.873 358.842 453.027 359.211 454.874C359.581 456.722 356.901 458.108 355.516 458.57C353.822 459.032 350.342 459.494 349.972 457.646Z" stroke="black" stroke-width="0.923846"/>
<path d="M394.779 435.935L393.855 391.591L421.571 431.712L394.779 435.935Z" fill="url(#paint11_linear_305_955)"/>
<path d="M393.394 395.286C391.915 381.244 397.397 375.27 400.322 374.038C404.388 373.299 410.639 384.816 413.256 390.667C418.491 403.293 428.961 431.039 428.961 441.017C428.961 450.994 418.491 454.105 413.256 454.412L370.297 458.57C371.036 454.505 367.834 448.253 366.14 445.636L406.789 429.931C402.94 424.233 394.872 409.329 393.394 395.286Z" fill="url(#paint12_linear_305_955)"/>
<path d="M373.531 458.57L367.988 445.636C365.986 446.406 360.412 448.038 354.13 448.408C347.848 448.777 343.506 451.949 342.12 453.489L349.973 465.961C351.051 465.037 354.407 462.727 359.211 460.879C364.015 459.032 370.759 458.57 373.531 458.57Z" fill="url(#paint13_linear_305_955)"/>
<path d="M311.171 433.164C322.997 436.86 332.112 407.296 335.191 392.053L333.343 431.316C331.342 433.78 326.784 439.446 324.567 442.403C322.35 445.359 312.557 443.018 307.938 441.479L309.785 456.26C308.092 456.414 303.873 456.63 300.547 456.26C297.221 455.891 294.234 450.563 293.156 447.946C292.848 443.942 292.787 435.474 295.004 433.626C297.776 431.316 307.014 431.778 311.171 433.164Z" fill="url(#paint14_linear_305_955)"/>
<path d="M301.933 450.255C298.607 445.082 302.703 441.325 305.166 440.093C309.324 441.479 318.654 444.804 322.719 447.022C326.784 449.239 325.953 454.104 325.029 456.26L317.638 456.722C313.789 456.722 305.259 455.429 301.933 450.255Z" fill="url(#paint15_linear_305_955)"/>
<path d="M343.044 401.753C346.37 381.059 351.205 371.882 354.13 369.881C338.425 373.114 335.653 386.972 334.729 393.901C333.99 399.444 331.034 423.926 329.648 435.474C328.724 444.404 326.969 464.39 327.339 472.889C327.8 483.514 316.252 503.838 320.41 505.224C323.736 506.333 328.262 503.838 330.11 502.453C331.219 491.366 333.652 482.128 334.729 478.894C334.883 478.279 337.131 473.629 337.501 461.803C337.87 449.978 339.041 436.398 339.348 430.854C339.348 429.777 339.718 422.447 343.044 401.753Z" fill="url(#paint16_linear_305_955)"/>
<path d="M337.501 435.936L311.633 436.397L326.877 466.884H352.282L337.501 435.936Z" fill="#C9674D"/>
<path d="M354.592 353.713L354.13 333.851H373.069L375.378 346.323L374.455 350.942C373.685 352.02 370.574 355.099 364.292 358.794C358.01 362.49 355.208 356.947 354.592 353.713Z" fill="url(#paint17_linear_305_955)"/>
<path d="M373.531 350.48C372.792 349.371 373.531 345.398 373.993 343.551C375.686 342.011 378.15 340.04 378.15 344.475C378.15 348.909 376.456 350.326 375.84 350.48C374.916 350.941 374.27 351.588 373.531 350.48Z" fill="url(#paint18_linear_305_955)"/>
<path d="M361.14 339.394C352.271 338.285 350.978 329.385 351.439 325.074C353.657 328.03 357.599 328.461 359.292 328.307H370.379C372.38 327.999 376.845 328.585 378.693 333.389C380.541 338.193 379.228 343.705 378.15 345.861H373.15C372.781 344.382 371.456 343.705 370.84 343.551C370.533 342.935 369.639 341.241 368.531 339.394C367.422 337.546 365.913 337.7 365.297 338.008C364.682 338.47 362.988 339.394 361.14 339.394Z" fill="url(#paint19_linear_305_955)"/>
<rect x="513" y="173" width="41.4549" height="4.82034" fill="#F0CF93"/>
<rect x="513" y="181.677" width="41.4549" height="1.92814" fill="#F0CF93"/>
<rect x="513" y="185.533" width="34.7064" height="1.92814" fill="#F0CF93"/>
<rect x="513" y="189.389" width="34.7064" height="1.92814" fill="#F0CF93"/>
<rect x="513" y="193.245" width="28.922" height="1.92814" fill="#F0CF93"/>
<rect x="513" y="197.102" width="28.922" height="1.92814" fill="#F0CF93"/>
</g>
<defs>
<linearGradient id="paint0_linear_305_955" x1="463.343" y1="580.395" x2="567.945" y2="509.054" gradientUnits="userSpaceOnUse">
<stop stop-color="#1F2A4B"/>
<stop offset="1" stop-color="#2C4C6D"/>
</linearGradient>
<linearGradient id="paint1_linear_305_955" x1="516.796" y1="574.515" x2="439.42" y2="678.171" gradientUnits="userSpaceOnUse">
<stop stop-color="#2C4F6A"/>
<stop offset="0.0001" stop-color="#263456"/>
<stop offset="1" stop-color="#283B5F"/>
</linearGradient>
<linearGradient id="paint2_linear_305_955" x1="443.492" y1="681.339" x2="525.45" y2="581.89" gradientUnits="userSpaceOnUse">
<stop stop-color="#1B2340"/>
<stop offset="1" stop-color="#212E50"/>
</linearGradient>
<linearGradient id="paint3_linear_305_955" x1="512.484" y1="506.176" x2="579.505" y2="440.699" gradientUnits="userSpaceOnUse">
<stop stop-color="#1F2A4B"/>
<stop offset="1" stop-color="#2C4C6D"/>
</linearGradient>
<linearGradient id="paint4_linear_305_955" x1="329.081" y1="660.43" x2="329.081" y2="679.369" gradientUnits="userSpaceOnUse">
<stop stop-color="#202948"/>
<stop offset="1" stop-color="#0B1028"/>
</linearGradient>
<linearGradient id="paint5_linear_305_955" x1="401.015" y1="659.044" x2="401.015" y2="678.907" gradientUnits="userSpaceOnUse">
<stop stop-color="#202948"/>
<stop offset="1" stop-color="#0B1028"/>
</linearGradient>
<linearGradient id="paint6_linear_305_955" x1="325.953" y1="571.741" x2="405.865" y2="549.107" gradientUnits="userSpaceOnUse">
<stop stop-color="#192042"/>
<stop offset="0.499122" stop-color="#111731"/>
<stop offset="0.541497" stop-color="#1B2345"/>
<stop offset="0.857652" stop-color="#161D3C"/>
</linearGradient>
<linearGradient id="paint7_linear_305_955" x1="372.607" y1="347.708" x2="372.607" y2="371.728" gradientUnits="userSpaceOnUse">
<stop stop-color="#EC8F5F"/>
<stop offset="1" stop-color="#FFC292"/>
</linearGradient>
<linearGradient id="paint8_linear_305_955" x1="366.14" y1="352.327" x2="371.221" y2="360.18" gradientUnits="userSpaceOnUse">
<stop stop-color="#D9D9D9"/>
<stop offset="0.169471" stop-color="#7E3918"/>
<stop offset="1" stop-color="#F7AC7C"/>
</linearGradient>
<linearGradient id="paint9_linear_305_955" x1="338.425" y1="416.073" x2="367.064" y2="402.215" gradientUnits="userSpaceOnUse">
<stop stop-color="#D3ECEF"/>
<stop offset="1" stop-color="#E2EDEE"/>
</linearGradient>
<linearGradient id="paint10_linear_305_955" x1="381.835" y1="364.8" x2="386.927" y2="504.3" gradientUnits="userSpaceOnUse">
<stop stop-color="#2E5975"/>
<stop offset="0.567848" stop-color="#141C37"/>
<stop offset="1" stop-color="#17203F"/>
</linearGradient>
<linearGradient id="paint11_linear_305_955" x1="407.713" y1="391.591" x2="407.713" y2="435.935" gradientUnits="userSpaceOnUse">
<stop stop-color="#181D3D"/>
<stop offset="1" stop-color="#18243F"/>
</linearGradient>
<linearGradient id="paint12_linear_305_955" x1="397.551" y1="374.004" x2="397.551" y2="458.57" gradientUnits="userSpaceOnUse">
<stop stop-color="#2D4061"/>
<stop offset="0.630208" stop-color="#223252"/>
<stop offset="1" stop-color="#1C2B49"/>
</linearGradient>
<linearGradient id="paint13_linear_305_955" x1="357.826" y1="445.636" x2="357.826" y2="465.961" gradientUnits="userSpaceOnUse">
<stop stop-color="#F5BF83"/>
<stop offset="0.677083" stop-color="#D77B48"/>
<stop offset="1" stop-color="#D4794D"/>
</linearGradient>
<linearGradient id="paint14_linear_305_955" x1="333.805" y1="403.601" x2="302.395" y2="456.26" gradientUnits="userSpaceOnUse">
<stop stop-color="#0B1229"/>
<stop offset="1" stop-color="#252C4C"/>
</linearGradient>
<linearGradient id="paint15_linear_305_955" x1="313.236" y1="440.093" x2="313.236" y2="456.722" gradientUnits="userSpaceOnUse">
<stop stop-color="#F5BF83"/>
<stop offset="0.677083" stop-color="#D77B48"/>
<stop offset="1" stop-color="#D4794D"/>
</linearGradient>
<linearGradient id="paint16_linear_305_955" x1="336.818" y1="369.881" x2="336.818" y2="505.5" gradientUnits="userSpaceOnUse">
<stop stop-color="#334767"/>
<stop offset="0.536458" stop-color="#181D3A"/>
<stop offset="1" stop-color="#19244A"/>
</linearGradient>
<linearGradient id="paint17_linear_305_955" x1="355.054" y1="334.313" x2="371.221" y2="357.409" gradientUnits="userSpaceOnUse">
<stop stop-color="#E7D097"/>
<stop offset="1" stop-color="#F6B672"/>
</linearGradient>
<linearGradient id="paint18_linear_305_955" x1="376.145" y1="341.756" x2="376.145" y2="351.092" gradientUnits="userSpaceOnUse">
<stop stop-color="#EEA060"/>
<stop offset="1" stop-color="#EB8540"/>
</linearGradient>
<linearGradient id="paint19_linear_305_955" x1="350.897" y1="325.536" x2="381.845" y2="346.322" gradientUnits="userSpaceOnUse">
<stop stop-color="#1B3A62"/>
<stop offset="0.9999" stop-color="#101222"/>
<stop offset="1" stop-color="#D9D9D9" stop-opacity="0"/>
<stop offset="1" stop-color="#101222"/>
</linearGradient>
</defs>
</svg>
