<svg width="233" height="35" viewBox="0 0 233 35" fill="none" xmlns="http://www.w3.org/2000/svg">
<g clip-path="url(#clip0_839_3640)">
<path d="M27.1057 34.3H22.7563L19.7273 25.7444H7.61133L4.58233 34.3H0L11.2617 2.56667H15.9217L27.1057 34.3ZM18.3293 21.7778L13.6693 8.4L8.93167 21.7778H18.3293ZM49.4737 34.3H45.8233L45.3573 31.5C44.5807 32.5111 43.571 33.2889 42.2507 33.9111C40.9303 34.4556 39.6877 34.7667 38.6003 34.7667C35.7267 34.7667 33.3967 33.6 31.455 31.3444C29.5133 29.1667 28.5037 26.3667 28.5037 23.1778C28.5037 19.9889 29.4357 17.2667 31.2997 15.0111C33.1637 12.7556 35.5713 11.5889 38.6003 11.5889C41.5517 11.5889 43.804 12.5222 45.3573 14.3889V0.233337H49.4737V34.3ZM38.911 15.2444C36.9693 15.2444 35.416 15.9444 34.3287 17.4222C33.1637 18.9 32.62 20.8444 32.62 23.1778C32.62 25.4333 33.1637 27.3 34.3287 28.8556C35.416 30.3333 36.9693 31.1111 38.911 31.1111C40.6973 31.1111 42.3283 30.4889 43.7263 29.1667C45.1243 27.8444 45.8233 25.9 45.8233 23.3333C45.8233 20.7667 45.1243 18.8222 43.7263 17.4222C42.3283 15.9444 40.6973 15.2444 38.911 15.2444ZM73.4727 12.0556L65.706 34.3H60.58L52.658 12.0556H57.1627L63.376 29.8667L69.5117 12.0556H73.4727ZM94.5203 31.4222C92.5787 33.6778 89.8603 34.7667 86.5207 34.7667C83.1033 34.7667 80.4627 33.6778 78.4433 31.4222C76.5017 29.2444 75.5697 26.5222 75.5697 23.1778C75.5697 19.8333 76.5017 17.1111 78.4433 14.8556C80.4627 12.6778 83.1033 11.5889 86.5207 11.5889C89.8603 11.5889 92.5787 12.6778 94.5203 14.8556C96.462 17.1111 97.394 19.8333 97.394 23.1778C97.394 26.5222 96.462 29.2444 94.5203 31.4222ZM91.569 17.3444C90.3263 15.9444 88.6953 15.2444 86.5207 15.2444C81.6277 15.2444 79.6083 18.6667 79.6083 23.1778C79.6083 27.6111 81.6277 31.1111 86.5207 31.1111C91.336 31.1111 93.3553 27.6111 93.3553 23.1778C93.3553 20.6889 92.734 18.7444 91.569 17.3444ZM105.782 34.3H101.743V0.233337H105.782V22.0889L113.937 12.0556H118.908L109.821 22.3222L119.141 34.3H114.17L105.782 23.0222V34.3ZM140.421 31.5778L139.8 34.7667C138.557 34.7667 136.693 34.6889 135.606 33.9889C134.907 33.5222 134.286 32.7444 133.742 31.5778C131.878 33.6778 129.626 34.7667 126.907 34.7667C124.888 34.7667 123.257 34.1444 122.014 32.9C120.772 31.7333 120.15 30.1778 120.15 28.3111C120.15 25.3556 122.014 23.1 124.733 22.0111C127.529 20.8444 130.402 20.3778 133.431 20.3778C133.431 18.3556 133.043 17.0333 132.266 16.3333C131.49 15.5556 130.247 15.2444 128.538 15.2444C126.597 15.2444 124.655 15.8667 122.713 17.2667L122.092 13.9222C124.111 12.3667 126.597 11.5889 129.626 11.5889C132.422 11.5889 134.519 12.3667 135.684 14C136.849 15.5556 137.47 18.2778 137.47 22.2444V26.8333C137.47 28.6222 137.625 29.8667 137.936 30.5667C138.402 31.5778 139.489 31.5778 140.421 31.5778ZM133.431 28.5444V23.1778C130.092 23.2556 127.762 23.7222 126.364 24.5C124.966 25.2 124.267 26.4444 124.267 28.1556C124.267 30.4111 125.432 31.5778 127.684 31.5778C129.936 31.5778 132.111 30.3333 133.431 28.5444ZM154.79 31.5778L154.479 34.7667H150.751C148.809 34.7667 147.334 34.2222 146.402 33.2111C145.47 32.2 145.004 30.8778 145.004 29.4V20.3778H149.042V26.9889C149.042 29.1667 149.275 30.4889 149.741 30.8778C150.518 31.6556 153.547 31.5778 154.79 31.5778Z" fill="#854F4D"/>
<path fill-rule="evenodd" clip-rule="evenodd" d="M145.004 18.7445H149.042V14H153.858V9.87781H149.042V5.13336H145.004V9.87781H140.188V14H145.004V18.7445Z" fill="#E9A77B"/>
<path d="M170.323 23.1778H163.411V34.3H158.906V2.56667H169.081C171.877 2.56667 174.362 2.8 176.77 4.27778C179.566 5.91111 180.109 9.48889 180.109 12.4444C180.109 14.9333 179.566 17.8889 177.935 19.8333C175.993 22.0889 173.275 23.1778 170.323 23.1778ZM168.226 6.45556H163.411V19.2889H169.469C173.585 19.2889 175.605 17.1111 175.605 12.6C175.605 10.3444 175.061 8.71111 173.974 7.77778C172.886 6.92223 170.945 6.45556 168.226 6.45556ZM191.293 31.5778L190.75 34.7667H189.429C187.41 34.7667 186.012 34.2222 185.08 33.2111C184.148 32.2 183.682 30.8778 183.682 29.4V0.233337H187.721V27.0667C187.721 29.0111 187.954 30.2556 188.42 30.8C188.808 31.2667 189.818 31.5778 191.293 31.5778ZM212.652 34.3H209.001L208.535 31.8111C207.137 33.7556 205.118 34.7667 202.4 34.7667C196.885 34.7667 194.167 31.5 194.167 24.9667V12.0556H198.283V23.8778C198.283 28.7 199.992 31.1111 203.409 31.1111C205.817 31.1111 207.526 30.2556 208.535 28.5444V12.0556H212.652V34.3ZM224.379 34.7667C221.195 34.7667 218.71 34.0667 216.846 32.8222L217.312 28.8556C217.933 29.4 218.865 29.8667 220.108 30.4111C221.35 30.8778 222.748 31.1111 224.224 31.1111C227.175 31.1111 228.729 30.1778 228.729 28.3111C228.729 26.6778 227.175 25.4333 224.224 24.6556C223.447 24.4222 222.748 24.2667 222.282 24.1111C221.816 23.9556 221.273 23.7222 220.496 23.3333C219.098 22.6333 218.399 22.0111 217.778 20.5333C217.467 19.8333 217.312 19.0556 217.312 18.2C217.312 16.3333 217.933 14.7778 219.331 13.5333C220.651 12.2111 222.748 11.5889 225.622 11.5889C227.719 11.5889 229.738 12.0556 231.68 13.0667L231.214 16.7222C229.583 15.4 227.797 14.7778 225.7 14.7778C222.826 14.7778 221.35 15.7889 221.35 17.8111C221.35 18.7444 221.739 19.4444 222.438 19.9111C223.214 20.3 224.535 20.8444 226.554 21.4667C227.331 21.7 227.952 21.9333 228.496 22.1667C229.117 22.4 229.738 22.7889 230.515 23.2556C232.224 24.3444 233 26.1333 233 28.0778C233 29.8667 232.457 31.1889 231.292 32.5111C229.738 34.3 226.632 34.7667 224.379 34.7667Z" fill="#E9A77B"/>
</g>
<defs>
<clipPath id="clip0_839_3640">
<rect width="233" height="35" fill="white"/>
</clipPath>
</defs>
</svg>
