<svg width="205" height="31" viewBox="0 0 205 31" fill="none" xmlns="http://www.w3.org/2000/svg">
<g clip-path="url(#clip0_305_1296)">
<path d="M23.8483 30.1781H20.0217L17.3567 22.6507H6.69667L4.03167 30.1781H0L9.90833 2.25825H14.0083L23.8483 30.1781ZM16.1267 19.1607L12.0267 7.39059L7.85833 19.1607H16.1267ZM43.5283 30.1781H40.3167L39.9067 27.7146C39.2233 28.6042 38.335 29.2885 37.1733 29.836C36.0117 30.315 34.9183 30.5887 33.9617 30.5887C31.4333 30.5887 29.3833 29.5623 27.675 27.5778C25.9667 25.6617 25.0783 23.1982 25.0783 20.3925C25.0783 17.5868 25.8983 15.1917 27.5383 13.2072C29.1783 11.2227 31.2967 10.1963 33.9617 10.1963C36.5583 10.1963 38.54 11.0174 39.9067 12.6598V0.205322H43.5283V30.1781ZM34.235 13.4125C32.5267 13.4125 31.16 14.0284 30.2033 15.3286C29.1783 16.6288 28.7 18.3396 28.7 20.3925C28.7 22.377 29.1783 24.0193 30.2033 25.388C31.16 26.6882 32.5267 27.3725 34.235 27.3725C35.8067 27.3725 37.2417 26.825 38.4717 25.6617C39.7017 24.4984 40.3167 22.7876 40.3167 20.5294C40.3167 18.2711 39.7017 16.5604 38.4717 15.3286C37.2417 14.0284 35.8067 13.4125 34.235 13.4125ZM64.6433 10.6068L57.81 30.1781H53.3L46.33 10.6068H50.2933L55.76 26.2776L61.1583 10.6068H64.6433ZM83.1617 27.6462C81.4533 29.6307 79.0617 30.5887 76.1233 30.5887C73.1167 30.5887 70.7933 29.6307 69.0167 27.6462C67.3083 25.7301 66.4883 23.335 66.4883 20.3925C66.4883 17.45 67.3083 15.0549 69.0167 13.0704C70.7933 11.1543 73.1167 10.1963 76.1233 10.1963C79.0617 10.1963 81.4533 11.1543 83.1617 13.0704C84.87 15.0549 85.69 17.45 85.69 20.3925C85.69 23.335 84.87 25.7301 83.1617 27.6462ZM80.565 15.2602C79.4717 14.0284 78.0367 13.4125 76.1233 13.4125C71.8183 13.4125 70.0417 16.4235 70.0417 20.3925C70.0417 24.2931 71.8183 27.3725 76.1233 27.3725C80.36 27.3725 82.1367 24.2931 82.1367 20.3925C82.1367 18.2027 81.59 16.4919 80.565 15.2602ZM93.07 30.1781H89.5167V0.205322H93.07V19.4345L100.245 10.6068H104.618L96.6233 19.6398L104.823 30.1781H100.45L93.07 20.2556V30.1781ZM123.547 27.7831L123 30.5887C121.907 30.5887 120.267 30.5203 119.31 29.9044C118.695 29.4938 118.148 28.8095 117.67 27.7831C116.03 29.6307 114.048 30.5887 111.657 30.5887C109.88 30.5887 108.445 30.0413 107.352 28.9464C106.258 27.9199 105.712 26.5513 105.712 24.9089C105.712 22.3086 107.352 20.3241 109.743 19.366C112.203 18.3396 114.732 17.929 117.397 17.929C117.397 16.1498 117.055 14.9864 116.372 14.3706C115.688 13.6862 114.595 13.4125 113.092 13.4125C111.383 13.4125 109.675 13.96 107.967 15.1917L107.42 12.2492C109.197 10.8806 111.383 10.1963 114.048 10.1963C116.508 10.1963 118.353 10.8806 119.378 12.3176C120.403 13.6862 120.95 16.0813 120.95 19.5713V23.6088C120.95 25.1827 121.087 26.2776 121.36 26.8934C121.77 27.7831 122.727 27.7831 123.547 27.7831ZM117.397 25.1142V20.3925C114.458 20.4609 112.408 20.8715 111.178 21.5558C109.948 22.1717 109.333 23.2666 109.333 24.7721C109.333 26.7566 110.358 27.7831 112.34 27.7831C114.322 27.7831 116.235 26.6882 117.397 25.1142ZM136.188 27.7831L135.915 30.5887H132.635C130.927 30.5887 129.628 30.1097 128.808 29.2201C127.988 28.3305 127.578 27.1672 127.578 25.867V17.929H131.132V23.7456C131.132 25.6617 131.337 26.825 131.747 27.1672C132.43 27.8515 135.095 27.7831 136.188 27.7831Z" fill="white"/>
<path fill-rule="evenodd" clip-rule="evenodd" d="M127.578 16.4918H131.132V12.3175H135.368V8.69065H131.132V4.51636H127.578V8.69065H123.342V12.3175H127.578V16.4918Z" fill="#ECA56D"/>
<path d="M149.855 20.3925H143.773V30.1781H139.81V2.25825H148.762C151.222 2.25825 153.408 2.46355 155.527 3.76374C157.987 5.20079 158.465 8.34862 158.465 10.949C158.465 13.1388 157.987 15.7392 156.552 17.45C154.843 19.4345 152.452 20.3925 149.855 20.3925ZM148.01 5.67981H143.773V16.9709H149.103C152.725 16.9709 154.502 15.0549 154.502 11.0859C154.502 9.10136 154.023 7.66431 153.067 6.84314C152.11 6.0904 150.402 5.67981 148.01 5.67981ZM168.305 27.7831L167.827 30.5887H166.665C164.888 30.5887 163.658 30.1097 162.838 29.2201C162.018 28.3305 161.608 27.1672 161.608 25.867V0.205322H165.162V23.814C165.162 25.5248 165.367 26.6197 165.777 27.0987C166.118 27.5093 167.007 27.7831 168.305 27.7831ZM187.097 30.1781H183.885L183.475 27.9883C182.245 29.6991 180.468 30.5887 178.077 30.5887C173.225 30.5887 170.833 27.7146 170.833 21.9664V10.6068H174.455V21.0084C174.455 25.2511 175.958 27.3725 178.965 27.3725C181.083 27.3725 182.587 26.6197 183.475 25.1142V10.6068H187.097V30.1781ZM197.415 30.5887C194.613 30.5887 192.427 29.9728 190.787 28.8779L191.197 25.388C191.743 25.867 192.563 26.2776 193.657 26.7566C194.75 27.1672 195.98 27.3725 197.278 27.3725C199.875 27.3725 201.242 26.5513 201.242 24.9089C201.242 23.4719 199.875 22.377 197.278 21.6927C196.595 21.4874 195.98 21.3505 195.57 21.2137C195.16 21.0768 194.682 20.8715 193.998 20.5294C192.768 19.9135 192.153 19.366 191.607 18.0658C191.333 17.45 191.197 16.7656 191.197 16.0129C191.197 14.3706 191.743 13.0019 192.973 11.907C194.135 10.7437 195.98 10.1963 198.508 10.1963C200.353 10.1963 202.13 10.6068 203.838 11.4965L203.428 14.7127C201.993 13.5494 200.422 13.0019 198.577 13.0019C196.048 13.0019 194.75 13.8915 194.75 15.6707C194.75 16.4919 195.092 17.1078 195.707 17.5184C196.39 17.8605 197.552 18.3396 199.328 18.887C200.012 19.0923 200.558 19.2976 201.037 19.5029C201.583 19.7082 202.13 20.0503 202.813 20.4609C204.317 21.419 205 22.9929 205 24.7037C205 26.2776 204.522 27.4409 203.497 28.6042C202.13 30.1781 199.397 30.5887 197.415 30.5887Z" fill="#ECA56D"/>
</g>
<defs>
<clipPath id="clip0_305_1296">
<rect width="205" height="30.794" fill="white"/>
</clipPath>
</defs>
</svg>
