<svg width="1679" height="1045" viewBox="0 0 1679 1045" fill="none" xmlns="http://www.w3.org/2000/svg">
<mask id="mask0_839_3654" style="mask-type:alpha" maskUnits="userSpaceOnUse" x="459" y="761" width="839" height="281">
<rect x="459.5" y="761.5" width="838" height="280" fill="#D9D9D9"/>
</mask>
<g mask="url(#mask0_839_3654)">
<g filter="url(#filter0_f_839_3654)">
<rect x="582.5" y="778.5" width="600" height="273" rx="58" fill="url(#paint0_linear_839_3654)"/>
</g>
<rect x="825.5" y="947.5" width="95" height="2" fill="#FCCE80"/>
<rect x="825.5" y="959.5" width="67" height="2" fill="#FCCE80"/>
<rect x="851.5" y="971.5" width="41" height="2" fill="#FCCE80"/>
<circle cx="834" cy="997" r="2.5" fill="#FCDFB8"/>
<circle cx="834" cy="997" r="2.5" fill="#FCDFB8"/>
<circle cx="834" cy="997" r="2.5" fill="#FCDFB8"/>
<circle cx="973" cy="1005" r="1.5" fill="#FCDFB8"/>
<circle cx="973" cy="1005" r="1.5" fill="#FCDFB8"/>
<circle cx="973" cy="1005" r="1.5" fill="#FCDFB8"/>
<circle cx="1033.5" cy="1000.5" r="1" fill="#FCDFB8"/>
<circle cx="1033.5" cy="1000.5" r="1" fill="#FCDFB8"/>
<circle cx="1033.5" cy="1000.5" r="1" fill="#FCDFB8"/>
<circle cx="941" cy="995" r="8" stroke="#FCDFB8"/>
<circle cx="669.5" cy="959.5" r="3.76471" stroke="#FCDFB8" stroke-width="0.470588"/>
<path d="M521.5 828.5V755.5" stroke="#E0D8D1"/>
<circle cx="522" cy="828" r="8" fill="#E9A77B" stroke="#FCDFB8"/>
<circle cx="476.5" cy="805.5" r="6.58824" stroke="#F0945B" stroke-width="0.823529"/>
<circle cx="476.5" cy="805.5" r="2.82353" stroke="#F0945B" stroke-width="0.352941"/>
</g>
<path d="M0 -2H1679C1505.12 313.127 1205.04 227.342 1183.61 420.5C1183 425.3 1182.61 437.833 1182.5 443.5L1182.5 862.5C1182.5 884.039 1165.04 901.5 1143.5 901.5H633.5C611.961 901.5 594.5 884.039 594.5 862.5V448C594.5 448 593.5 426 586 406.5C572.196 363.489 546.066 334.944 512 314.143C460.657 282.792 391.286 269.03 318.916 249.844C298.074 244.318 276.982 238.342 256 231.366C238.993 225.712 222.058 219.401 205.387 212.14C122.636 176.098 46.3788 116.655 0 -2Z" fill="url(#paint1_linear_839_3654)"/>
<rect x="433.5" y="848.5" width="74" height="2" fill="#D8D5D6"/>
<rect x="433.5" y="856.5" width="74" height="2" fill="#D8D5D6"/>
<rect x="433.5" y="864.5" width="74" height="2" fill="#D8D5D6"/>
<rect x="433.5" y="872.5" width="74" height="2" fill="#D8D5D6"/>
<rect x="433.5" y="880.5" width="74" height="2" fill="#D8D5D6"/>
<rect x="433.5" y="888.5" width="74" height="2" fill="#D8D5D6"/>
<path d="M483 411.5V354.5H553H593" stroke="#EAA36B" stroke-opacity="0.49"/>
<rect x="434" y="403" width="83" height="16" rx="7" fill="#E9A77B"/>
<circle cx="445.5" cy="411.5" r="2.5" fill="#FCDFB8"/>
<circle cx="445.5" cy="411.5" r="2.5" fill="#FCDFB8"/>
<circle cx="445.5" cy="411.5" r="2.5" fill="#FCDFB8"/>
<circle cx="455.5" cy="411.5" r="2.5" fill="#FCDFB8"/>
<circle cx="455.5" cy="411.5" r="2.5" fill="#FCDFB8"/>
<circle cx="455.5" cy="411.5" r="2.5" fill="#FCDFB8"/>
<circle cx="465.5" cy="411.5" r="2.5" fill="#FCDFB8"/>
<circle cx="465.5" cy="411.5" r="2.5" fill="#FCDFB8"/>
<circle cx="465.5" cy="411.5" r="2.5" fill="#FCDFB8"/>
<circle cx="475.5" cy="411.5" r="2.5" fill="#FCDFB8"/>
<circle cx="475.5" cy="411.5" r="2.5" fill="#FCDFB8"/>
<circle cx="475.5" cy="411.5" r="2.5" fill="#FCDFB8"/>
<circle cx="485.5" cy="411.5" r="2.5" fill="#FCDFB8"/>
<circle cx="485.5" cy="411.5" r="2.5" fill="#FCDFB8"/>
<circle cx="485.5" cy="411.5" r="2.5" fill="#FCDFB8"/>
<circle cx="495.5" cy="411.5" r="2.5" fill="#FCDFB8"/>
<circle cx="495.5" cy="411.5" r="2.5" fill="#FCDFB8"/>
<circle cx="495.5" cy="411.5" r="2.5" fill="#FCDFB8"/>
<circle cx="505.5" cy="411.5" r="2.5" fill="#FCDFB8"/>
<circle cx="505.5" cy="411.5" r="2.5" fill="#FCDFB8"/>
<circle cx="505.5" cy="411.5" r="2.5" fill="#FCDFB8"/>
<path d="M1245.5 363H1116V455" stroke="#EAA36B" stroke-opacity="0.49"/>
<rect x="1237" y="354" width="53" height="16" rx="7" fill="#E9A77B"/>
<rect x="1069" y="289" width="53" height="5" rx="2.5" fill="#E9A77B"/>
<circle cx="648.5" cy="550.5" r="8" stroke="#F0945B"/>
<circle cx="1203" cy="426" r="8" stroke="#F0945B"/>
<circle cx="1266" cy="409" r="8" fill="#E9A77B" stroke="#F0945B"/>
<rect x="493.5" y="470.5" width="131" height="216" rx="29" fill="url(#paint2_linear_839_3654)"/>
<rect x="493.5" y="470.5" width="131" height="216" rx="29" fill="url(#paint3_linear_839_3654)"/>
<rect x="493.5" y="470.5" width="131" height="216" rx="29" fill="url(#paint4_linear_839_3654)"/>
<rect x="493.5" y="470.5" width="131" height="216" rx="29" fill="url(#paint5_linear_839_3654)"/>
<rect x="493.5" y="470.5" width="131" height="216" rx="29" fill="url(#paint6_linear_839_3654)"/>
<rect x="493.5" y="470.5" width="131" height="216" rx="29" fill="url(#paint7_linear_839_3654)"/>
<rect x="493.5" y="470.5" width="131" height="216" rx="29" fill="url(#paint8_linear_839_3654)"/>
<path d="M1309.5 762.5V454.5H1205.5V500.5" stroke="#EAA36B" stroke-opacity="0.49"/>
<rect x="1145.5" y="477.5" width="144" height="288" rx="29" fill="url(#paint9_linear_839_3654)"/>
<rect x="1145.5" y="477.5" width="144" height="288" rx="29" fill="url(#paint10_linear_839_3654)"/>
<rect x="1145.5" y="477.5" width="144" height="288" rx="29" fill="url(#paint11_linear_839_3654)"/>
<rect x="1145.5" y="477.5" width="144" height="288" rx="29" fill="url(#paint12_linear_839_3654)"/>
<rect x="1145.5" y="477.5" width="144" height="288" rx="29" fill="url(#paint13_linear_839_3654)"/>
<rect x="1145.5" y="477.5" width="144" height="288" rx="29" fill="url(#paint14_linear_839_3654)"/>
<rect x="1145.5" y="477.5" width="144" height="288" rx="29" fill="url(#paint15_linear_839_3654)"/>
<rect x="915.5" y="439.5" width="248" height="441" rx="20" fill="#1C2747"/>
<rect x="934.5" y="467.5" width="210" height="405" rx="20" fill="url(#paint16_linear_839_3654)"/>
<circle cx="1087.5" cy="504.5" r="2" fill="#FCCE80"/>
<path d="M684.5 602.5V588.5H698V598.5H691V593.5M704 593.5V582H713V571H727.5V578H719V574H724M709 588.5V598.5H719V593.5H713M698 584V574H709V562H735.5V577H750.5V564.5H741V569.5H746.5M731 566.5H719M716 588.5H724V582M735.5 582H731V588.5V593.5H724V607.5H731V602.5H776.5V588.5H751.5V593.5H769V598.5H743.5V588.5V582H751.5M704 568.5V554.5H727.5V546.5H713V539H735.5V554.5H750.5V546.5H742.5M690.5 579V566H676.5V556.5H684.5V546.5H698V562H690.5V552M679 588.5H670V578H684.5V582H676.5M766 577V567.5H773.5V584H759V557.5H779.5V546.5H766V535.5H788.5V541H773.5" stroke="#374C6B" stroke-width="0.6"/>
<path d="M796.5 594.5V580.5H810V590.5H803V585.5M816 585.5V574H825V563H839.5V570H831V566H836M821 580.5V590.5H831V585.5H825M810 576V566H821V554H847.5V569H862.5V556.5H853V561.5H858.5M843 558.5H831M828 580.5H836V574M847.5 574H843V580.5V585.5H836V599.5H843V594.5H888.5V580.5H863.5V585.5H881V590.5H855.5V580.5V574H863.5M816 560.5V546.5H839.5V538.5H825V531H847.5V546.5H862.5V538.5H854.5M802.5 571V558H788.5V548.5H796.5V538.5H810V554H802.5V544M791 580.5H782V570H796.5V574H788.5" stroke="#374C6B" stroke-width="0.6"/>
<path d="M835 615.5L835 629.5L821.5 629.5L821.5 619.5L828.5 619.5L828.5 624.5M815.5 624.5L815.5 636L806.5 636L806.5 647L792 647L792 640L800.5 640L800.5 644L795.5 644M810.5 629.5L810.5 619.5L800.5 619.5L800.5 624.5L806.5 624.5M821.5 634L821.5 644L810.5 644L810.5 656L784 656L784 641L769 641L769 653.5L778.5 653.5L778.5 648.5L773 648.5M788.5 651.5L800.5 651.5M803.5 629.5L795.5 629.5L795.5 636M784 636L788.5 636L788.5 629.5L788.5 624.5L795.5 624.5L795.5 610.5L788.5 610.5L788.5 615.5L743 615.5L743 629.5L768 629.5L768 624.5L750.5 624.5L750.5 619.5L776 619.5L776 629.5L776 636L768 636M815.5 649.5L815.5 663.5L792 663.5L792 671.5L806.5 671.5L806.5 679L784 679L784 663.5L769 663.5L769 671.5L777 671.5M829 639L829 652L843 652L843 661.5L835 661.5L835 671.5L821.5 671.5L821.5 656L829 656L829 666M840.5 629.5L849.5 629.5L849.5 640L835 640L835 636L843 636M800.5 610.5L800.5 602L816 602L816 612L807 612L807 606.5M789 602L795.5 602M850 620L867 620L867 633L859.5 633L859.5 626M869 608L869 612L857.5 612L857.5 609L857.5 604.5L863 604.5M846 607L846 619.5M708 623L708 638L723.5 638L723.5 629L713 629M717 615.5L717 622.5L729 622.5L729 633L736.5 633L736.5 624.5M712.5 663.5L740.5 663.5L740.5 671.5L725 671.5L725 684H735L735 676L730 676M712.5 650.5L712.5 658L696.5 658L696.5 638L703 638L703 653M724 647.5L724 654.5L734 654.5M755.5 663.5L755.5 670L748.5 670M690 671L690 679L712.5 679L712.5 671L703 671L703 665" stroke="#374C6B" stroke-width="0.6"/>
<path d="M536.2 537.5C536.972 538.285 538.04 538.964 539.47 539.5L576.97 536.5V535.655H576.47H534.97C535.243 536.316 535.645 536.936 536.2 537.5Z" fill="#F0B66F"/>
<path d="M540.97 507V509.5H575.97C576.489 508.671 576.906 507.823 577.24 507H540.97Z" fill="url(#paint17_linear_839_3654)"/>
<path d="M540.97 507H577.24C577.413 506.575 577.563 506.156 577.694 505.75H539.72L540.97 507Z" fill="#DB8F53"/>
<path d="M539.47 501.5C538.27 501.5 538.304 503.5 538.47 504.5L539.72 505.75H577.694C578.286 503.905 578.47 502.309 578.47 501.5H539.47Z" fill="#FBCC7F"/>
<path fill-rule="evenodd" clip-rule="evenodd" d="M576.97 536.5L577.24 541.724C580.885 540.842 584.086 539.46 585.47 537C589.07 530.6 588.47 522 587.97 520.5C587.47 519 585.97 516.5 583.47 515.5C580.97 514.5 576.97 515.667 575.47 517C574.804 515.833 573.97 512.7 575.97 509.5H540.97V517C540.97 517.942 539.993 519.679 538.799 521.804C536.462 525.959 533.294 531.595 534.97 535.655H576.47H576.97V522C578.97 519.2 582.031 519.622 582.97 521.5C583.909 523.378 583.97 527 583.47 530C582.97 533 579.137 536.167 576.97 536.5Z" fill="url(#paint18_linear_839_3654)"/>
<path d="M552.97 551V557C555.47 557.833 559.97 559 557.97 557C555.97 555 557.97 546.5 561.97 544.5C563.303 543.834 565.956 543.489 569.036 543.09C571.646 542.751 574.563 542.372 577.24 541.724L576.97 536.5L539.47 539.5C549.07 543.1 552.47 548.667 552.97 551Z" fill="url(#paint19_linear_839_3654)"/>
<path d="M534.97 575.5V573.5H578.47V575.5H534.97Z" fill="#C78369"/>
<path d="M536.47 571V575H576.47V571H536.47Z" fill="#F28E59"/>
<path d="M552.47 554.5C551.67 555.7 549.137 557.667 547.97 558.5L547.22 561H565.904L558.97 554.5H552.47Z" fill="#E29D65"/>
<path d="M541.47 567V573H571.97V567H568.47V561H565.904L566.97 562V563.5H546.47L547.22 561H543.47V567H541.47Z" fill="#E2894E"/>
<path d="M566.97 563.5V562L565.904 561H547.22L546.47 563.5H566.97Z" fill="#E2894E"/>
<mask id="mask1_839_3654" style="mask-type:alpha" maskUnits="userSpaceOnUse" x="959" y="676" width="278" height="285">
<rect x="959.5" y="676.5" width="277" height="284" rx="13" fill="white"/>
</mask>
<g mask="url(#mask1_839_3654)">
<rect x="959.5" y="676.5" width="277" height="284" rx="13" fill="white"/>
<path d="M968 745.5C946.8 757.5 930.167 750.5 924.5 745.5L898.5 1020.5L1257 1011.5L1269 811.5C1267.17 795.5 1258 764.4 1236 768C1214 771.6 1201.83 749.167 1198.5 737.5C1194 730.333 1178.5 721.9 1152.5 745.5C1126.5 769.1 1087.67 756.667 1071.5 747.5L1043.5 710C1034.5 715 1027 745.5 1012.5 745.5C998 745.5 994.5 730.5 968 745.5Z" fill="#F0CF93"/>
<path d="M975 814.5C961.4 821.7 947.667 811.5 942.5 805.5L925.5 991.5L1253.5 975.5V856.5C1250.83 834.333 1237.8 789.5 1207 787.5C1168.5 785 1153 837.5 1134.5 805.5C1116 773.5 1098 757.5 1080 759.5C1062 761.5 1036.5 811 1022.5 805.5C1008.5 800 992 805.5 975 814.5Z" fill="#E9A77B"/>
<path d="M1029.5 826.5C970.3 814.9 953.167 838.667 952 852L913 1003H1178.5C1215.67 985.5 1290 945.5 1290 925.5C1290 900.5 1242.5 852 1215 836.5C1187.5 821 1171.5 852 1152.5 865C1133.5 878 1103.5 841 1029.5 826.5Z" fill="#9B6765"/>
<circle cx="1197" cy="855" r="2.5" fill="#FCDFB8"/>
<circle cx="1197" cy="855" r="2.5" fill="#FCDFB8"/>
<circle cx="1197" cy="855" r="2.5" fill="#FCDFB8"/>
<circle cx="1198" cy="800" r="1.5" fill="#FCDFB8"/>
<circle cx="1198" cy="800" r="1.5" fill="#FCDFB8"/>
<circle cx="1198" cy="800" r="1.5" fill="#FCDFB8"/>
<rect x="975.5" y="891.5" width="54" height="2" fill="#FCDFB8"/>
<rect x="975.5" y="915.5" width="25" height="2" fill="#FCDFB8"/>
<rect x="975.5" y="899.5" width="54" height="1" fill="#FCDFB8"/>
<rect x="975.5" y="907.5" width="54" height="1" fill="#FCDFB8"/>
<circle cx="1017" cy="917" r="1.5" fill="#FCDFB8"/>
<circle cx="1017" cy="917" r="1.5" fill="#FCDFB8"/>
<circle cx="1017" cy="917" r="1.5" fill="#FCDFB8"/>
<path d="M954 747.5L989.5 764M989.5 764L1027 757L1048 716M989.5 764V845M1027 838.5V768" stroke="url(#paint20_linear_839_3654)"/>
<path d="M1125.5 787L1170 759.037M1199.5 740.5L1170 759.037M1170 759.037V857.5M1217.5 927V729" stroke="url(#paint21_linear_839_3654)"/>
<rect x="985.5" y="696.5" width="28" height="4" fill="#E58A5B"/>
</g>
<path d="M1157.63 907.5L1156.13 952.5C1156.46 958 1158.03 970.4 1161.63 976C1165.23 981.6 1160.46 990 1157.63 993.5L1171.5 1038.5" stroke="black"/>
<path d="M1166 1039C1168.33 1023.5 1171.63 992.4 1171.63 980C1171.63 967.6 1168.96 952.167 1167.63 946C1168.96 943.5 1171.63 936.2 1171.63 927C1171.63 915.5 1179.63 889 1181.13 884M1169.5 1039.5C1187 1013.17 1221.93 960.4 1223.13 950C1224.63 937 1223.13 882.5 1237.63 858.5" stroke="black"/>
<path d="M1164.63 908C1170.3 896.833 1171.23 873.3 1129.63 868.5C1136.96 873.5 1154.23 888.4 1164.63 908Z" fill="#233254"/>
<path d="M1129.63 868.5C1129.13 879.833 1135.43 903.6 1164.63 908C1154.23 888.4 1136.96 873.5 1129.63 868.5Z" fill="#1F2C4D"/>
<path d="M1178.95 889.183C1191.4 890.56 1213.76 883.155 1203.61 842.525C1201.51 851.149 1193.64 872.554 1178.95 889.183Z" fill="#233254"/>
<path d="M1203.61 842.525C1192.83 846.044 1172.8 860.302 1178.95 889.183C1193.64 872.554 1201.51 851.149 1203.61 842.525Z" fill="#1F2C4D"/>
<path d="M1164.66 993C1170.32 981.833 1171.26 958.3 1129.66 953.5C1136.99 958.5 1154.26 973.4 1164.66 993Z" fill="#233254"/>
<path d="M1129.66 953.5C1129.16 964.833 1135.46 988.6 1164.66 993C1154.26 973.4 1136.99 958.5 1129.66 953.5Z" fill="#1F2C4D"/>
<path d="M1158.64 953.5C1174.64 941.5 1167.71 915.472 1125.96 912.21C1133.47 916.936 1147.52 934.297 1158.64 953.5Z" fill="#233254"/>
<path d="M1125.96 912.21C1125.88 923.554 1121.63 935 1158.64 953.5C1147.52 934.297 1133.47 916.936 1125.96 912.21Z" fill="#1F2C4D"/>
<path d="M1184.63 925.5C1179.03 937.5 1190.63 939.5 1197.13 939C1200.96 938.167 1217.03 931.5 1250.63 911.5C1284.23 891.5 1294.96 868.167 1296.13 859C1291.46 857.333 1273.93 856.9 1241.13 868.5C1200.13 883 1191.63 910.5 1184.63 925.5Z" fill="#2C4F6A"/>
<path d="M1296.13 859.5L1185.13 935.5C1190.13 942 1211.63 938 1252.63 910C1285.43 887.6 1295.3 867 1296.13 859.5Z" fill="url(#paint22_linear_839_3654)"/>
<path d="M1160.46 1031.53C1158.86 1045.24 1171.1 1045.5 1178.61 1031C1182.02 1029.01 1197.69 1015.17 1223.59 985.038C1249.48 954.908 1248.12 940.951 1246.36 931.415C1241.37 931.147 1224.36 926.565 1196.59 948.038C1161.87 974.879 1162.45 1014.4 1160.46 1031.53Z" fill="url(#paint23_linear_839_3654)"/>
<path d="M1246.52 931.917C1246.52 931.917 1217.09 951.038 1199.09 975.038C1181.09 999.038 1164.08 1041.4 1164.08 1041.4C1170.91 1046.42 1193.11 1025.91 1223.59 985.538C1247.96 953.243 1248.08 939.682 1246.52 931.917Z" fill="url(#paint24_linear_839_3654)"/>
<path d="M1234.81 851.88C1233.05 862.132 1241.51 861.834 1245.96 860.404C1248.48 859.14 1258.51 851.371 1278.4 830.398C1298.29 809.426 1301.61 789.516 1300.79 782.183C1297.23 781.631 1284.91 784.1 1264.08 798.395C1238.04 816.264 1237.02 839.065 1234.81 851.88Z" fill="#2C4F6A"/>
<path d="M1300.88 782.573L1236.95 859.596C1241.6 863.863 1255.9 857.303 1279.53 828.909C1298.43 806.194 1301.63 788.553 1300.88 782.573Z" fill="url(#paint25_linear_839_3654)"/>
<circle cx="1293.5" cy="942.5" r="2.82353" fill="#B8CAC5" stroke="#F0945B" stroke-width="0.352941"/>
<path d="M1074.5 1041.5L1073 1021.5H1065L1063 1027C1055 1038.5 1037 1038 1032 1038.5C1028 1038.9 1028 1041 1028.5 1042L1074.5 1041.5Z" fill="url(#paint26_linear_839_3654)"/>
<path d="M1137 1028.5V1020H1148.5L1153 1041.5H1105.5C1107 1040 1111.7 1036.9 1118.5 1036.5C1125.3 1036.1 1133.67 1031 1137 1028.5Z" fill="url(#paint27_linear_839_3654)"/>
<path d="M1118.5 815.5L1055 817.5C1050.6 847.9 1050.5 892.167 1051 910.5L1063 1022.5C1064.33 1025.5 1074.5 1022.5 1074.5 1022.5C1080.5 1015.3 1086.67 940.833 1089 904.5L1074.5 844.5C1080.67 865.333 1094.4 912.2 1100 933C1105.6 953.8 1126.33 1001.67 1136 1023L1150 1022.5C1150.33 1014.83 1148.3 988.9 1137.5 946.5C1126.7 904.1 1120.33 841.5 1118.5 815.5Z" fill="url(#paint28_linear_839_3654)"/>
<path d="M1087.5 702V691L1100.5 683V695.5C1100.5 699.1 1102.5 700.667 1103.5 701L1106.5 705L1117 710L1088 720L1080 712C1081.5 710.667 1084.7 707.7 1085.5 706.5C1086.3 705.3 1087.17 703 1087.5 702Z" fill="url(#paint29_linear_839_3654)"/>
<path d="M1096 696C1093.6 698.8 1089.33 701.167 1087.5 702V695L1100.5 686.5L1100 690C1099.67 690.833 1098.4 693.2 1096 696Z" fill="url(#paint30_linear_839_3654)"/>
<path d="M1086 704.5L1077.5 707L1068.5 715.5L1059 759L1056 816.5L1099 815.5L1110.5 705.5L1103 701C1099.33 704.167 1091.5 710.4 1089.5 710C1087.5 709.6 1086.33 706.167 1086 704.5Z" fill="url(#paint31_linear_839_3654)"/>
<path d="M1071 792C1071 792 1073 759.5 1086 715H1088L1077.5 793L1073 799L1071 792Z" fill="#283554"/>
<path d="M1085 713.5L1089.5 710L1090.5 715L1086 717.5L1085 713.5Z" fill="#283554"/>
<path d="M1092.5 741.5L1104.5 701.5C1106 702.5 1109.6 704.7 1112 705.5C1122.8 708.3 1129.5 711.667 1131.5 713C1130 728 1126.7 765.7 1125.5 796.5C1124 835 1133 852 1129.5 853.5C1126.7 854.7 1123 852 1121.5 850.5C1107.1 857.3 1097.5 849.333 1094.5 844.5C1091.67 840.333 1085.9 827.2 1085.5 808C1085.1 788.8 1090 755.667 1092.5 741.5Z" fill="url(#paint32_linear_839_3654)"/>
<path d="M1074 802C1073.6 800 1077.17 799.167 1079 799L1081 797C1081.83 796.833 1083.6 797 1084 799C1084.4 801 1081.5 802.5 1080 803C1078.17 803.5 1074.4 804 1074 802Z" stroke="black"/>
<path d="M1122.5 778.5L1121.5 730.5L1151.5 773.929L1122.5 778.5Z" fill="url(#paint33_linear_839_3654)"/>
<path d="M1121 734.5C1119.4 719.3 1125.33 712.833 1128.5 711.5C1132.9 710.7 1139.67 723.167 1142.5 729.5C1148.17 743.167 1159.5 773.2 1159.5 784C1159.5 794.8 1148.17 798.167 1142.5 798.5L1096 803C1096.8 798.6 1093.33 791.833 1091.5 789L1135.5 772C1131.33 765.833 1122.6 749.7 1121 734.5Z" fill="url(#paint34_linear_839_3654)"/>
<path d="M1099.5 803L1093.5 789C1091.33 789.833 1085.3 791.6 1078.5 792C1071.7 792.4 1067 795.833 1065.5 797.5L1074 811C1075.17 810 1078.8 807.5 1084 805.5C1089.2 803.5 1096.5 803 1099.5 803Z" fill="url(#paint35_linear_839_3654)"/>
<path d="M1032 775.5C1044.8 779.5 1054.67 747.5 1058 731L1056 773.5C1053.83 776.167 1048.9 782.3 1046.5 785.5C1044.1 788.7 1033.5 786.167 1028.5 784.5L1030.5 800.5C1028.67 800.667 1024.1 800.9 1020.5 800.5C1016.9 800.1 1013.67 794.333 1012.5 791.5C1012.17 787.167 1012.1 778 1014.5 776C1017.5 773.5 1027.5 774 1032 775.5Z" fill="url(#paint36_linear_839_3654)"/>
<path d="M1022 794C1018.4 788.4 1022.83 784.333 1025.5 783C1030 784.5 1040.1 788.1 1044.5 790.5C1048.9 792.9 1048 798.167 1047 800.5L1039 801C1034.83 801 1025.6 799.6 1022 794Z" fill="url(#paint37_linear_839_3654)"/>
<path d="M1066.5 741.5C1070.1 719.1 1075.33 709.167 1078.5 707C1061.5 710.5 1058.5 725.5 1057.5 733C1056.7 739 1053.5 765.5 1052 778C1051 787.667 1049.1 809.3 1049.5 818.5C1050 830 1037.5 852 1042 853.5C1045.6 854.7 1050.5 852 1052.5 850.5C1053.7 838.5 1056.33 828.5 1057.5 825C1057.67 824.333 1060.1 819.3 1060.5 806.5C1060.9 793.7 1062.17 779 1062.5 773C1062.5 771.833 1062.9 763.9 1066.5 741.5Z" fill="url(#paint38_linear_839_3654)"/>
<path d="M1060.5 778.5L1032.5 779L1049 812H1076.5L1060.5 778.5Z" fill="#C9674D"/>
<path d="M1079 689.5L1078.5 668H1099L1101.5 681.5L1100.5 686.5C1099.67 687.667 1096.3 691 1089.5 695C1082.7 699 1079.67 693 1079 689.5Z" fill="url(#paint39_linear_839_3654)"/>
<path d="M1099.5 686C1098.7 684.8 1099.5 680.5 1100 678.5C1101.83 676.833 1104.5 674.7 1104.5 679.5C1104.5 684.3 1102.67 685.833 1102 686C1101 686.5 1100.3 687.2 1099.5 686Z" fill="url(#paint40_linear_839_3654)"/>
<path d="M1086.09 674C1076.49 672.8 1075.09 663.167 1075.59 658.5C1077.99 661.7 1082.25 662.167 1084.09 662H1096.09C1098.25 661.667 1103.09 662.3 1105.09 667.5C1107.09 672.7 1105.67 678.667 1104.5 681H1099.09C1098.69 679.4 1097.25 678.667 1096.59 678.5C1096.25 677.833 1095.29 676 1094.09 674C1092.89 672 1091.25 672.167 1090.59 672.5C1089.92 673 1088.09 674 1086.09 674Z" fill="url(#paint41_linear_839_3654)"/>
<rect x="651.5" y="477.5" width="104.167" height="1" fill="#3F5C89"/>
<rect x="651.5" y="483.5" width="140" height="1" fill="#3F5C89"/>
<rect x="651.5" y="489.5" width="140" height="1" fill="#3F5C89"/>
<rect x="651.5" y="495.5" width="140" height="1" fill="#3F5C89"/>
<rect x="651.5" y="501.5" width="134.167" height="1" fill="#3F5C89"/>
<rect x="651.5" y="507.5" width="131.667" height="1" fill="#3F5C89"/>
<rect x="651.5" y="513.5" width="131.667" height="1" fill="#3F5C89"/>
<rect x="651.5" y="519.5" width="125" height="1" fill="#3F5C89"/>
<rect x="651.5" y="525.5" width="125" height="1" fill="#3F5C89"/>
<rect x="831.5" y="477.5" width="61" height="1" fill="#3F5C89"/>
<rect x="831.5" y="483.5" width="61" height="1" fill="#3F5C89"/>
<rect x="831.5" y="489.5" width="61" height="1" fill="#3F5C89"/>
<rect x="831.5" y="495.5" width="61" height="1" fill="#3F5C89"/>
<rect x="831.5" y="501.5" width="61" height="1" fill="#3F5C89"/>
<rect x="831.5" y="507.5" width="61" height="1" fill="#3F5C89"/>
<rect x="831.5" y="513.5" width="61" height="1" fill="#3F5C89"/>
<rect x="831.5" y="519.5" width="61" height="1" fill="#3F5C89"/>
<rect x="831.5" y="525.5" width="61" height="1" fill="#3F5C89"/>
<rect x="493.5" y="619.5" width="166" height="146" rx="21" fill="url(#paint42_linear_839_3654)"/>
<rect x="521.5" y="661.4" width="6.65002" height="74.1002" fill="#DA9161"/>
<rect x="532.9" y="655.7" width="6.65002" height="79.8002" fill="#DA9161"/>
<rect x="544.3" y="647.15" width="6.65002" height="88.3502" fill="#DA9161"/>
<rect x="555.7" y="640.5" width="6.65002" height="95.0002" fill="#DA9161"/>
<rect x="567.1" y="650" width="6.65002" height="85.5002" fill="#DA9161"/>
<rect x="578.5" y="661.4" width="6.65002" height="74.1002" fill="#DA9161"/>
<rect x="589.9" y="652.85" width="6.65002" height="82.6502" fill="#DA9161"/>
<path d="M649.495 723.944C653.339 710.089 665.952 700.5 680.33 700.5H860.5C878.173 700.5 892.5 714.827 892.5 732.5V846.5C892.5 864.173 878.173 878.5 860.5 878.5H661.5C643.827 878.5 629.5 864.173 629.5 846.5L629.5 800.357C629.5 797.466 629.892 794.588 630.665 791.801L649.495 723.944Z" fill="url(#paint43_linear_839_3654)"/>
<path d="M648.243 702.266C648.728 701.191 649.798 700.5 650.977 700.5H888.332C890.381 700.5 891.827 702.509 891.177 704.452L855.688 810.452C855.279 811.676 854.133 812.5 852.843 812.5H603.145C600.967 812.5 599.515 810.252 600.411 808.266L648.243 702.266Z" fill="#9B6765"/>
<path d="M649.032 702.244C649.522 701.181 650.586 700.5 651.757 700.5H883.303C885.361 700.5 886.808 702.524 886.142 704.471L851.59 805.471C851.175 806.685 850.034 807.5 848.751 807.5H605.187C602.998 807.5 601.546 805.232 602.462 803.244L649.032 702.244Z" fill="#EF9C62"/>
<path d="M649.032 702.244C649.522 701.181 650.586 700.5 651.757 700.5H883.303C885.361 700.5 886.808 702.524 886.142 704.471L851.59 805.471C851.175 806.685 850.034 807.5 848.751 807.5H605.187C602.998 807.5 601.546 805.232 602.462 803.244L649.032 702.244Z" fill="#B17C7A"/>
<path d="M656 700.5H880L845.5 801H609.5L656 700.5Z" fill="#ECFCFF"/>
<path d="M672.5 718L674 713.5H853.5L851.5 718H672.5Z" fill="#C2DBEA"/>
<path d="M667.5 728.5L669 724H848.5L846.5 728.5H667.5Z" fill="#C2DBEA"/>
<path d="M662.5 739L664 734.5H843.5L841.5 739H662.5Z" fill="#C2DBEA"/>
<path d="M657.5 749.5L659 745H838.5L836.5 749.5H657.5Z" fill="#C2DBEA"/>
<path d="M652.5 760L654 755.5H833.5L831.5 760H652.5Z" fill="#C2DBEA"/>
<path d="M647.5 770.5L649 766H828.5L826.5 770.5H647.5Z" fill="#C2DBEA"/>
<path d="M642.5 781L644 776.5H823.5L821.5 781H642.5Z" fill="#C2DBEA"/>
<path d="M818 674.15H803L801.5 675.65L802 676.15H817L818 674.15Z" fill="#D9D9D9"/>
<path d="M876 572.137C877.2 572.137 877.833 573.137 878 573.637L896.5 634.137H899.5C893.167 613.471 880.3 571.937 879.5 571.137C876.7 567.537 874 569.637 873 571.137L853 633.637L855.5 634.137L874 575.137C874.167 574.137 874.8 572.137 876 572.137Z" fill="url(#paint44_linear_839_3654)"/>
<path d="M731.5 571.137C732.7 571.137 733.333 572.137 733.5 572.637L752 633.137H755C748.667 612.471 735.8 570.937 735 570.137C732.2 566.537 729.5 568.637 728.5 570.137L708.5 632.637L711 633.137L729.5 574.137C729.667 573.137 730.3 571.137 731.5 571.137Z" fill="url(#paint45_linear_839_3654)"/>
<path d="M908 632.637L845 632.137C848.667 637.971 860 649.737 876 650.137C892 650.537 904 638.637 908 632.637Z" fill="url(#paint46_linear_839_3654)"/>
<path d="M763.5 631.637L700.5 631.137C704.167 636.971 715.5 648.737 731.5 649.137C747.5 649.537 759.5 637.637 763.5 631.637Z" fill="url(#paint47_linear_839_3654)"/>
<path d="M908 632.637L845 632.137L846 633.637L906.5 634.637L908 632.637Z" fill="#EFCAA5"/>
<path d="M763.5 631.637L700.5 631.137L701.5 632.637L762 633.637L763.5 631.637Z" fill="#EFCAA5"/>
<path fill-rule="evenodd" clip-rule="evenodd" d="M795.5 548.15C799.5 548.15 803.166 554.15 804.5 557.15H812.5L814.5 553.65L816.5 548.15H823.5C825.167 547.983 830.7 549.45 839.5 556.65C848.247 563.806 863.317 568.262 869.882 569.625C869.759 569.723 869.693 570.309 870 572.15C870.4 574.55 873.167 575.816 874.5 576.15L881 575.65C881.167 575.65 882 575.25 884 573.65C886 572.05 886.167 568.316 886 566.65C885.667 565.316 884.2 562.85 881 563.65C872.6 565.25 863.5 563.316 860 562.15C852.5 558.316 836.4 549.65 832 545.65C827.6 541.65 818.5 541.316 814.5 541.65C816.167 539.816 819.4 535.95 819 535.15C818.6 534.35 815.167 533.816 813.5 533.65V529.65C814.5 529.65 816.5 529.25 816.5 527.65C816.5 526.05 813.833 524.983 812.5 524.65V518.15C815.7 517.75 816.167 512.983 816 510.65L811.5 510.15V499.65C812.285 499.388 812.659 499.811 813.195 500.416C813.684 500.968 814.308 501.673 815.5 502.15C817.5 502.95 817.333 500.15 817 498.65L811.5 493.65C811.333 491.65 811.1 487.55 811.5 487.15C813.5 486.35 814.667 483.15 815 481.65C813.833 479.816 810.6 476.85 807 479.65C803.4 482.45 806.5 485.816 808.5 487.15L808 493.65L805.5 495.65C804.5 496.483 802.6 498.85 803 501.65C803.394 504.405 805.756 505.127 806.943 505.149C806.984 505.209 807 505.197 807 505.15C806.981 505.15 806.963 505.149 806.943 505.149C806.839 504.996 806.574 504.373 806 502.65C805.2 500.25 807.333 499.65 808.5 499.65V510.15L803 510.65C802.833 512.15 802.7 515.25 803.5 515.65C804.3 516.05 806.167 517.483 807 518.15V524.65C806.5 524.65 805.1 525.05 803.5 526.65C801.9 528.25 803.167 529.316 804 529.65L804.5 532.15C804.333 532.65 803.8 533.75 803 534.15C799.8 535.35 799.667 536.983 800 537.65L804 542.15C803.167 541.983 800.4 541.65 796 541.65C790.5 541.65 785.5 543.65 779 547.15C761 559.55 752.167 562.983 750 563.15L727 563.65C726.333 563.983 724.9 565.35 724.5 568.15C724.1 570.95 726.667 572.983 728 573.65C730.333 574.983 735.6 577.15 738 575.15C740.399 573.15 738.666 570.65 737.5 569.65L735.5 572.15L734.5 569.65C734 570.983 732.3 573.25 729.5 571.65C726.7 570.05 728 568.316 729 567.65C729.666 567.483 732.4 567.45 738 568.65C743.6 569.85 754.666 566.483 759.5 564.65C765.666 561.15 779 553.55 783 551.15C788 548.15 790.5 548.15 795.5 548.15ZM879.5 568.15C877.1 568.15 874.833 569.15 874 569.65C873.6 572.05 875.167 572.983 876 573.15C876.667 573.483 878.5 573.95 880.5 573.15C882.5 572.35 882.667 570.15 882.5 569.15C882.5 568.816 881.9 568.15 879.5 568.15Z" fill="#F2B572"/>
<path d="M814.5 553.65H802.5L803.5 557.15L805 564.15H812.5C813 565.15 813.9 565.95 813.5 561.15C813.1 556.35 814 554.65 814.5 553.65Z" fill="#C3655B"/>
<path d="M805 667.65V675.15H814V667.65C814.833 666.65 817 663.95 819 661.15C821 658.35 820.5 654.65 820 653.15L814 647.65C813.5 646.15 813 645.15 814 639.65C815 634.15 814.667 612.15 814.5 604.15C814.5 604.15 813 572.65 813.5 569.65C814 566.65 818.5 567.15 817.5 564.15C816.5 561.15 813 560.65 813 560.65C811.5 560.483 807.6 560.35 804 561.15C800.4 561.95 800.833 564.483 801.5 565.65C801.5 565.65 804 567.65 805 569.65C806 571.65 806 574.15 806 577.15C806 580.15 802.5 621.65 805 639.65C806 645.15 804.5 647.65 804.5 647.65L799 651.65V653.65C799.4 662.85 803.167 666.816 805 667.65Z" fill="url(#paint48_linear_839_3654)"/>
<path d="M803.5 680.15C803.1 682.15 801 683.65 800 684.15C807.333 684.816 821.6 686.05 820 685.65C818.4 685.25 817 679.483 816.5 676.65C817 676.483 818 675.85 818 674.65C818 673.45 816.667 673.15 816 673.15H804.5C803.667 673.65 801.9 674.75 801.5 675.15C801.1 675.55 802.667 676.65 803.5 677.15C803.667 677.316 803.9 678.15 803.5 680.15Z" fill="url(#paint49_linear_839_3654)"/>
<path d="M793.5 690.65C793.1 692.25 790.667 692.983 789.5 693.15C802.167 693.816 827.3 694.85 826.5 693.65C825.7 692.45 825.167 687.483 825 685.15L819 682.65H800.5L794 684.65C794 685.983 793.9 689.05 793.5 690.65Z" fill="url(#paint50_linear_839_3654)"/>
<path d="M785.5 696.15C785.5 698.55 782.833 700.15 781.5 700.65C800.833 700.816 838.9 701.05 836.5 700.65C834.1 700.25 833.167 694.816 833 692.15H785.5V696.15Z" fill="url(#paint51_linear_839_3654)"/>
<path d="M778 699.65C777.833 701.483 777.5 705.25 777.5 705.65L843.5 706.65L840 699.15L778 699.65Z" fill="url(#paint52_linear_839_3654)"/>
<path d="M776.115 786.276L786.874 779.263L789.049 785.326L795.087 788.044L792.653 790.4L793.312 796.624C791.951 797.048 788.605 797.794 786.109 797.387C783.612 796.979 782.219 794.441 781.834 793.223L776.115 786.276Z" fill="url(#paint53_linear_839_3654)"/>
<path d="M805.105 790.625L810.5 778.97L815.563 782.954L822.122 782.052L821.31 785.341L825.172 790.266C824.244 791.348 821.804 793.756 819.472 794.736C817.14 795.716 814.612 794.305 813.64 793.477L805.105 790.625Z" fill="url(#paint54_linear_839_3654)"/>
<path d="M702.5 962.5C703.7 951.7 711 923.667 714.5 911C729.333 910.5 755.7 915.3 742.5 938.5C729.3 961.7 708 1001.83 699 1019L695 1016C697 1002.67 701.3 973.3 702.5 962.5Z" fill="url(#paint55_linear_839_3654)"/>
<path d="M701 1018L695 1015.5L690 1018C689 1021.17 686.8 1027.9 686 1029.5C685.2 1031.1 686.333 1034.83 687 1036.5V1042H690V1035.5L693.5 1038.5V1042H716.5V1038.5C713.333 1039.17 705.8 1039.1 701 1033.5C696.2 1027.9 699 1020.83 701 1018Z" fill="#172041"/>
<path d="M691 1023.5C689.8 1018.3 692.833 1018.67 694.5 1019.5C694.167 1020.17 693.6 1022.1 694 1024.5C694.4 1026.9 695.5 1031.83 696 1034C694.833 1032.67 692.2 1028.7 691 1023.5Z" fill="#273F62"/>
<path d="M789 980L783.5 907H764C763.833 917 763.6 940.3 764 953.5C764.4 966.7 778.5 1006.67 785.5 1025L791.5 1027L789 980Z" fill="url(#paint56_linear_839_3654)"/>
<path d="M791.5 1026.5L785 1024.5C784.333 1026 782.9 1029.9 782.5 1033.5C782.1 1037.1 784.333 1040.87 785.5 1042.31H788.5V1035.5L791.5 1039.5L792 1042.31H823V1039.5C819.667 1039.5 812.1 1039.4 808.5 1039C804.9 1038.6 795.667 1030.5 791.5 1026.5Z" fill="#222A4C"/>
<path d="M752 961.5C721.5 970.5 709.5 946.833 707 934C705.4 920 710.333 887.833 713 873.5L768 776.5C769.333 785.333 772.4 804.7 774 811.5C776 820 785 899 785.5 908.5C786 918 785 929.5 774 942C765.2 952 755.667 959.167 752 961.5Z" fill="url(#paint57_linear_839_3654)"/>
<path d="M737.5 869.5C722.7 875.1 712.666 892.833 709.5 901C709.5 897.333 708.9 883.6 706.5 858C703.5 826 721.5 796.5 726 792C729.6 788.4 733.833 766.167 735.5 755.5C747.833 760.667 772.7 773 773.5 781C774.5 791 756 862.5 737.5 869.5Z" fill="url(#paint58_linear_839_3654)"/>
<path d="M744.5 748.5C748 762.5 769 776.5 769 777L746 784.5L731.5 759L739 722.5C739.667 726.5 741.7 737.3 744.5 748.5Z" fill="#151B35"/>
<path d="M747.5 676C747.9 673.2 751.333 674.167 753 675L747.5 663C745 667.333 739.5 676.4 737.5 678C735.5 679.6 734 697 733.5 705.5C729.667 710.667 721.1 721.8 717.5 725C713 729 707.5 748 710 765C712 778.6 727.5 786.333 735 788.5L745 708C743.667 707.667 741.4 706.7 743 705.5C744.6 704.3 745.667 696.333 746 692.5L748.5 690C749.667 688.667 751.6 685.6 750 684C748 682 747 679.5 747.5 676Z" fill="#1B213B"/>
<path d="M743.5 702.5L752.5 703.5V682L749.5 680.5L744.5 690.5L743.5 702.5Z" fill="url(#paint59_linear_839_3654)"/>
<path d="M753.5 702.5L743.5 701.5L743 709C745.833 709.667 749.6 711.9 752 715.5C754.4 719.1 763.167 731.667 766 738C766.167 744.167 766.6 757.6 767 762C767.4 766.4 766.667 769.167 766.5 772C766.5 772 769.5 770 770 768.5C770.5 767 778.5 738.5 776.5 732C774.5 725.5 765.2 716.5 762 714.5C758.8 712.5 755 705.667 753.5 702.5Z" fill="url(#paint60_linear_839_3654)"/>
<path d="M756 711L754.5 711.5L756 713.5L756.5 714V715L758.5 714.5L757 713.5L756.5 713L756 711Z" fill="#16284E"/>
<path d="M780.5 734C778.833 724 771 716.5 755.5 706.5C755.5 708.5 767.5 723 771.5 728C774.7 732 773.167 748 772 755.5C770.833 759.833 768.5 769.8 768.5 775C768.5 781.5 810.5 786.5 795.5 783C783.5 780.2 779.5 769.5 779 764.5C780 757.333 781.7 741.2 780.5 734Z" fill="url(#paint61_linear_839_3654)"/>
<path d="M742.5 741.5C742.5 741.5 747.5 770 767 772L768 771C768 771 769 747.5 767 738C765 728.5 758.5 718.5 754.5 714.5C750.5 710.5 743 707 743 707C739.833 708.833 733.6 714.1 728 718.5C721 724 719.5 755 721.5 772.5C723.5 790 740.5 792.5 751 791C759.4 789.8 771.833 790.5 777 791C777 791 800.833 792.5 806.5 791L813 778.5L789 779.5C785.5 777.333 775 773.3 761 774.5C747 775.7 741.5 768.667 740.5 765L739 726L742.5 741.5Z" fill="url(#paint62_linear_839_3654)"/>
<path d="M768 687C768.8 685 767 674.5 766 669.5L748.5 671C746.333 674.167 745.2 682.4 754 688C765 695 767 689.5 768 687Z" fill="#F8C882"/>
<path d="M712.5 789C723 793 734 792 741.5 790.5C741.5 790.5 720 784.5 715 769C710 753.5 720.4 732.8 720 728C719.5 722 729 712.5 732.5 710.5C736 708.5 738 690 738 682C738 675.6 744.333 667.667 747.5 664.5C747 667.667 746.3 674 747.5 674C748.7 674 751.667 677.667 753 679.5L766 672L767.5 667C768.5 663.333 767.7 655.8 756.5 655C742.5 654 737.5 662 728 668C718.5 674 704 709 702 719C700.4 727 702.667 737 704 741C704 741 689.5 777 712.5 789Z" fill="url(#paint63_linear_839_3654)"/>
<path d="M766.501 672C762.001 674.333 753.401 680 753.001 680C753.001 680 751.5 678.5 750 676.5C748.5 674.5 746.501 674 746.501 674C744.5 673 743 667 747 663C750.021 659.979 765.001 657 766.501 660.5C767.701 663.3 768.5 668 766.501 672Z" fill="url(#paint64_linear_839_3654)"/>
<path d="M752.939 683.619C754.298 680.555 753.445 670.409 747.501 674.429C744.104 676.726 750.22 687.64 752.939 683.619Z" fill="url(#paint65_linear_839_3654)"/>
<path d="M647.009 756.5L689.5 757.513C687.945 760.216 684.215 767.343 681.727 774.233C679.24 781.124 672.745 789.602 669.809 792.98L632.5 794.5L647.009 756.5Z" fill="url(#paint66_linear_839_3654)"/>
<path d="M546.33 948C552.83 909 563.83 903.5 564.33 901.5C569.497 901.5 580.23 903.4 581.83 911C583.83 920.5 566.83 958 560.83 966.5C556.03 973.3 549.164 996 546.33 1006.5C543.83 1006.5 539.23 1005.6 540.83 1002C542.43 998.4 543.164 983.5 543.33 976.5C543.164 973.833 543.53 964.4 546.33 948Z" fill="url(#paint67_linear_839_3654)"/>
<path d="M609.927 970.548C599.823 932.323 606.366 935.029 606 933C610.71 930.876 622.5 927.5 627.108 936C631.716 944.5 630.5 968.5 630.5 980C630.5 991.5 631.767 1013.76 633.5 1024.5C631.221 1025.53 627.129 1025.98 627.108 1022.04C627.087 1018.1 621.631 1004.21 618.906 997.763C617.658 995.4 614.115 986.65 609.927 970.548Z" fill="url(#paint68_linear_839_3654)"/>
<path d="M625.5 1028.5C623.5 1031.3 625 1039 626 1042.5H630.5C630 1040.33 629.4 1036.1 631 1036.5C632.6 1036.9 632.333 1040.67 632 1042.5L665.5 1042V1041C660.333 1040.33 648.3 1038 641.5 1034C634.7 1030 633 1023.67 633 1021L627.5 1021.5C627.667 1022.67 627.5 1025.7 625.5 1028.5Z" fill="#172342"/>
<path d="M530.5 1018.5C531.3 1014.9 537.5 1007 540.5 1003.5C542.9 1005.5 545.833 1005.67 547 1005.5C546.833 1007 546.8 1013.4 548 1027C548.959 1037.87 556.158 1041.37 561.733 1042H565.5C564.43 1042.13 563.133 1042.16 561.733 1042H534C534 1037.5 534.2 1027.9 535 1025.5C535.8 1023.1 537 1018.83 537.5 1017L534 1022L530.5 1018.5Z" fill="url(#paint69_linear_839_3654)"/>
<path d="M544.999 1006.5C544.999 1006.5 543.999 1006.5 542.499 1006C540.999 1005.5 540.499 1004.5 540.499 1004.5C540.499 1004.5 534.833 1012.5 534.5 1014.5L538.5 1016L535.999 1030V1041H545.499L541.499 1020.5C541.499 1020.5 539.999 1017.5 540.499 1014.5C540.999 1011.5 544.999 1006.5 544.999 1006.5Z" fill="url(#paint70_linear_839_3654)"/>
<path d="M575.5 814L641 812.5C641.667 818 643 832 643 844C643 856 631.5 884 630.5 901.5C629.5 919 630.5 949 630.5 949C623 949.167 604.8 949 592 947C579.2 945 561 924.833 553.5 915L575.5 814Z" fill="url(#paint71_linear_839_3654)"/>
<path d="M627 691C633 684.6 629.5 674 627 669.5L613.5 671.5L612.5 678L609 677C608 676.833 605.2 679.8 606 683C606.8 686.2 608.833 687.167 610 687L602 703.5C603.167 705.333 608.1 710.6 612.5 711C616.9 711.4 619 708.5 619.5 707L614.5 700.5V689C616.167 692.333 621 697.4 627 691Z" fill="url(#paint72_linear_839_3654)"/>
<path d="M620 729L619.5 707.5C639.1 717.9 650.333 740.833 653.5 751C648.667 757.667 638.6 774.1 637 786.5C635 802 647 808 645.5 810.5C644.3 812.5 638.333 817 636 819.5C635.167 813.667 631.7 800.1 630.5 790.5C629 778.5 627 763.5 630 755C632.4 748.2 621.5 732.833 620 729Z" fill="url(#paint73_linear_839_3654)"/>
<path d="M638 771L631 756L638.5 754L642.5 746.5L645 750H652.5C652.833 751.833 653.3 756.3 652.5 759.5C651.7 762.7 648.5 764.167 647 764.5L638 771Z" fill="url(#paint74_linear_839_3654)"/>
<path d="M599 706.5L603.5 704C605.167 706 609.3 709.7 612.5 710.5C615.7 711.3 619 706.5 619.5 707C620 707.5 618.5 712 626.5 726C636.5 743.5 634 744 632.5 767C631.3 785.4 634.333 809.667 636 819.5H616.5C617.333 818.5 608.6 813.6 609 800C609.4 786.4 610 772 609 764.5C608 757 608.2 749.6 607 744C605.5 737 601 726 599 723.5C597.4 721.5 600 711.167 599 706.5Z" fill="#D9F2FB"/>
<path d="M606.5 715L608.5 711L614 718L613 723.5H610.5L610 718L606.5 715Z" fill="#16284E"/>
<path d="M617.5 711.5L614.5 717.5L617.5 720L618.5 726L621.5 722L618.5 717L617.5 711.5Z" fill="#16284E"/>
<path d="M599 706.5C590.5 706.5 583 711 582.5 711L577.5 769L578.5 799.5C570.333 814.667 553.1 850.5 549.5 872.5C545.9 894.5 552 907 555.5 910.5C571.833 888.667 605.5 843.1 609.5 835.5C614.5 826 624.5 795 620 788.5C616.4 783.3 614.5 776 614 773L613 754C612.833 749.833 612.2 740.6 611 737C609.8 733.4 605.5 725.5 603.5 722L599 706.5Z" fill="url(#paint75_linear_839_3654)"/>
<path d="M594 780.5L589.5 723.5L573.5 741.5L577.5 784L594 780.5Z" fill="#1A1F3B"/>
<path d="M563.962 769.311C560.762 724.911 574.962 713.145 582.462 712.811C583.462 711.978 586.162 712.311 588.962 720.311C591.762 728.311 586.462 749.311 583.462 758.811C582.629 759.645 582.562 761.811 588.962 763.811C596.962 766.311 634 753.5 634 755.5C634 757.5 634.5 764 639.5 770C640.5 772 589.962 788.311 576.462 785.311C565.662 782.911 563.629 773.645 563.962 769.311Z" fill="url(#paint76_linear_839_3654)"/>
<path d="M661 799.5C666.2 799.1 668.833 791.667 669.5 788C667 788 661.5 788.6 659.5 791C657.5 793.4 653 794 651 794C652.167 796 655.8 799.9 661 799.5Z" fill="#E39E59"/>
<path d="M523.491 713H512.991C508.158 722.833 509.907 738.604 535.491 743C567.5 748.5 565.5 730 574.5 718.5C583.5 707 599.5 709 602.991 704.5C606.822 699.564 610.325 689.833 611.491 685.5C611.491 685.5 609.991 686.5 608.991 685.5C605.767 682.275 606.825 680 607.991 679C607.991 679 609.991 678 611.491 681C612.991 674.5 623.158 674.333 627.991 675L630.991 681C639.491 672 636.491 654 625.491 653C604.567 651.098 595.991 667 580.991 667.5C550.941 668.502 543.991 689.5 537.991 700.5C533.191 709.3 526.325 712.5 523.491 713Z" fill="url(#paint77_linear_839_3654)"/>
<circle cx="834" cy="605" r="2.5" fill="url(#paint78_radial_839_3654)"/>
<circle cx="834" cy="605" r="2.5" fill="url(#paint79_radial_839_3654)"/>
<circle cx="834" cy="605" r="2.5" fill="url(#paint80_radial_839_3654)"/>
<circle cx="834" cy="605" r="2.5" fill="url(#paint81_radial_839_3654)"/>
<circle cx="834" cy="605" r="2.5" fill="url(#paint82_radial_839_3654)"/>
<circle cx="834" cy="605" r="2.5" fill="url(#paint83_radial_839_3654)"/>
<circle cx="834" cy="605" r="2.5" fill="url(#paint84_radial_839_3654)"/>
<circle cx="937.5" cy="296.5" r="2.5" fill="url(#paint85_radial_839_3654)"/>
<circle cx="937.5" cy="296.5" r="2.5" fill="url(#paint86_radial_839_3654)"/>
<circle cx="937.5" cy="296.5" r="2.5" fill="url(#paint87_radial_839_3654)"/>
<circle cx="937.5" cy="296.5" r="2.5" fill="url(#paint88_radial_839_3654)"/>
<circle cx="937.5" cy="296.5" r="2.5" fill="url(#paint89_radial_839_3654)"/>
<circle cx="937.5" cy="296.5" r="2.5" fill="url(#paint90_radial_839_3654)"/>
<circle cx="937.5" cy="296.5" r="2.5" fill="url(#paint91_radial_839_3654)"/>
<circle cx="547.5" cy="274.5" r="2.5" fill="url(#paint92_radial_839_3654)"/>
<circle cx="547.5" cy="274.5" r="2.5" fill="url(#paint93_radial_839_3654)"/>
<circle cx="547.5" cy="274.5" r="2.5" fill="url(#paint94_radial_839_3654)"/>
<circle cx="547.5" cy="274.5" r="2.5" fill="url(#paint95_radial_839_3654)"/>
<circle cx="547.5" cy="274.5" r="2.5" fill="url(#paint96_radial_839_3654)"/>
<circle cx="547.5" cy="274.5" r="2.5" fill="url(#paint97_radial_839_3654)"/>
<circle cx="547.5" cy="274.5" r="2.5" fill="url(#paint98_radial_839_3654)"/>
<circle cx="1077.5" cy="397.5" r="2.5" fill="url(#paint99_radial_839_3654)"/>
<circle cx="1077.5" cy="397.5" r="2.5" fill="url(#paint100_radial_839_3654)"/>
<circle cx="1077.5" cy="397.5" r="2.5" fill="url(#paint101_radial_839_3654)"/>
<circle cx="1077.5" cy="397.5" r="2.5" fill="url(#paint102_radial_839_3654)"/>
<circle cx="1077.5" cy="397.5" r="2.5" fill="url(#paint103_radial_839_3654)"/>
<circle cx="1077.5" cy="397.5" r="2.5" fill="url(#paint104_radial_839_3654)"/>
<circle cx="1077.5" cy="397.5" r="2.5" fill="url(#paint105_radial_839_3654)"/>
<circle cx="872.056" cy="687.968" r="1.51105" transform="rotate(2.5759 872.056 687.968)" fill="url(#paint106_radial_839_3654)"/>
<circle cx="872.056" cy="687.968" r="1.51105" transform="rotate(2.5759 872.056 687.968)" fill="url(#paint107_radial_839_3654)"/>
<circle cx="872.056" cy="687.968" r="1.51105" transform="rotate(2.5759 872.056 687.968)" fill="url(#paint108_radial_839_3654)"/>
<circle cx="872.056" cy="687.968" r="1.51105" transform="rotate(2.5759 872.056 687.968)" fill="url(#paint109_radial_839_3654)"/>
<circle cx="872.056" cy="687.968" r="1.51105" transform="rotate(2.5759 872.056 687.968)" fill="url(#paint110_radial_839_3654)"/>
<circle cx="872.056" cy="687.968" r="1.51105" transform="rotate(2.5759 872.056 687.968)" fill="url(#paint111_radial_839_3654)"/>
<circle cx="872.056" cy="687.968" r="1.51105" transform="rotate(2.5759 872.056 687.968)" fill="url(#paint112_radial_839_3654)"/>
<circle cx="901.53" cy="661.478" r="0.937229" transform="rotate(2.5759 901.53 661.478)" fill="url(#paint113_radial_839_3654)"/>
<circle cx="901.53" cy="661.478" r="0.937229" transform="rotate(2.5759 901.53 661.478)" fill="url(#paint114_radial_839_3654)"/>
<circle cx="901.53" cy="661.478" r="0.937229" transform="rotate(2.5759 901.53 661.478)" fill="url(#paint115_radial_839_3654)"/>
<circle cx="901.53" cy="661.478" r="0.937229" transform="rotate(2.5759 901.53 661.478)" fill="url(#paint116_radial_839_3654)"/>
<circle cx="901.53" cy="661.478" r="0.937229" transform="rotate(2.5759 901.53 661.478)" fill="url(#paint117_radial_839_3654)"/>
<circle cx="901.53" cy="661.478" r="0.937229" transform="rotate(2.5759 901.53 661.478)" fill="url(#paint118_radial_839_3654)"/>
<circle cx="901.53" cy="661.478" r="0.937229" transform="rotate(2.5759 901.53 661.478)" fill="url(#paint119_radial_839_3654)"/>
<circle cx="510.479" cy="603.478" r="0.937229" transform="rotate(2.5759 510.479 603.478)" fill="url(#paint120_radial_839_3654)"/>
<circle cx="510.479" cy="603.478" r="0.937229" transform="rotate(2.5759 510.479 603.478)" fill="url(#paint121_radial_839_3654)"/>
<circle cx="510.479" cy="603.478" r="0.937229" transform="rotate(2.5759 510.479 603.478)" fill="url(#paint122_radial_839_3654)"/>
<circle cx="510.479" cy="603.478" r="0.937229" transform="rotate(2.5759 510.479 603.478)" fill="url(#paint123_radial_839_3654)"/>
<circle cx="510.479" cy="603.478" r="0.937229" transform="rotate(2.5759 510.479 603.478)" fill="url(#paint124_radial_839_3654)"/>
<circle cx="510.479" cy="603.478" r="0.937229" transform="rotate(2.5759 510.479 603.478)" fill="url(#paint125_radial_839_3654)"/>
<circle cx="510.479" cy="603.478" r="0.937229" transform="rotate(2.5759 510.479 603.478)" fill="url(#paint126_radial_839_3654)"/>
<circle cx="1011.48" cy="879.478" r="0.937229" transform="rotate(2.5759 1011.48 879.478)" fill="url(#paint127_radial_839_3654)"/>
<circle cx="1011.48" cy="879.478" r="0.937229" transform="rotate(2.5759 1011.48 879.478)" fill="url(#paint128_radial_839_3654)"/>
<circle cx="1011.48" cy="879.478" r="0.937229" transform="rotate(2.5759 1011.48 879.478)" fill="url(#paint129_radial_839_3654)"/>
<circle cx="1011.48" cy="879.478" r="0.937229" transform="rotate(2.5759 1011.48 879.478)" fill="url(#paint130_radial_839_3654)"/>
<circle cx="1011.48" cy="879.478" r="0.937229" transform="rotate(2.5759 1011.48 879.478)" fill="url(#paint131_radial_839_3654)"/>
<circle cx="1011.48" cy="879.478" r="0.937229" transform="rotate(2.5759 1011.48 879.478)" fill="url(#paint132_radial_839_3654)"/>
<circle cx="1011.48" cy="879.478" r="0.937229" transform="rotate(2.5759 1011.48 879.478)" fill="url(#paint133_radial_839_3654)"/>
<circle cx="665.479" cy="877.478" r="0.937229" transform="rotate(2.5759 665.479 877.478)" fill="url(#paint134_radial_839_3654)"/>
<circle cx="665.479" cy="877.478" r="0.937229" transform="rotate(2.5759 665.479 877.478)" fill="url(#paint135_radial_839_3654)"/>
<circle cx="665.479" cy="877.478" r="0.937229" transform="rotate(2.5759 665.479 877.478)" fill="url(#paint136_radial_839_3654)"/>
<circle cx="665.479" cy="877.478" r="0.937229" transform="rotate(2.5759 665.479 877.478)" fill="url(#paint137_radial_839_3654)"/>
<circle cx="665.479" cy="877.478" r="0.937229" transform="rotate(2.5759 665.479 877.478)" fill="url(#paint138_radial_839_3654)"/>
<circle cx="665.479" cy="877.478" r="0.937229" transform="rotate(2.5759 665.479 877.478)" fill="url(#paint139_radial_839_3654)"/>
<circle cx="665.479" cy="877.478" r="0.937229" transform="rotate(2.5759 665.479 877.478)" fill="url(#paint140_radial_839_3654)"/>
<path d="M651.5 428H847" stroke="url(#paint141_linear_839_3654)"/>
<path d="M651.5 432.5H847" stroke="url(#paint142_linear_839_3654)"/>
<rect x="959.5" y="491.5" width="23" height="4" fill="#FCCE80"/>
<rect x="989.5" y="491.5" width="66" height="4" fill="#FCCE80"/>
<rect x="959.5" y="502.5" width="120" height="4" fill="#FCCE80"/>
<rect x="959.5" y="511.5" width="74" height="4" fill="#FCCE80"/>
<rect x="1046.5" y="554.5" width="74" height="2" fill="#FCCE80"/>
<rect x="1046.5" y="562.5" width="74" height="2" fill="#FCCE80"/>
<rect x="1046.5" y="570.5" width="74" height="2" fill="#FCCE80"/>
<rect x="1046.5" y="578.5" width="74" height="2" fill="#FCCE80"/>
<rect x="1046.5" y="586.5" width="74" height="2" fill="#FCCE80"/>
<rect x="1046.5" y="594.5" width="74" height="2" fill="#FCCE80"/>
<rect x="1046.5" y="619.5" width="32" height="2" fill="#FCCE80"/>
<rect x="1046.5" y="619.5" width="32" height="2" fill="#FCCE80"/>
<rect x="1046.5" y="624.5" width="32" height="2" fill="#FCCE80"/>
<rect x="1046.5" y="629.5" width="32" height="2" fill="#FCCE80"/>
<rect x="959.5" y="520.5" width="74" height="4" fill="#FCCE80"/>
<circle cx="629.5" cy="431.5" r="12" fill="#E9A77B"/>
<path d="M632.5 431L628 434.897L628 427.103L632.5 431Z" fill="white"/>
<circle cx="1133.5" cy="432.5" r="12" fill="#ED8B59"/>
<path d="M1136.5 432L1132 435.897L1132 428.103L1136.5 432Z" fill="white"/>
<path d="M1216 565.5L1245.97 561.5V560.655H1245.47L1210 557C1211.14 559.754 1212.5 562.5 1216 565.5Z" fill="#F0B66F"/>
<path d="M1209.97 532V534.5H1244.97C1245.49 533.671 1245.91 532.823 1246.24 532H1209.97Z" fill="url(#paint143_linear_839_3654)"/>
<path d="M1209.97 532H1246.24C1246.41 531.575 1246.56 531.156 1246.69 530.75H1208.72L1209.97 532Z" fill="#DB8F53"/>
<path d="M1208.47 526.5C1207.27 526.5 1207.3 528.5 1207.47 529.5L1208.72 530.75H1246.69C1247.29 528.905 1247.47 527.309 1247.47 526.5H1208.47Z" fill="#FBCC7F"/>
<path fill-rule="evenodd" clip-rule="evenodd" d="M1245.97 561.5L1246.24 566.724C1249.88 565.842 1253.09 564.46 1254.47 562C1258.07 555.6 1257.47 547 1256.97 545.5C1256.47 544 1254.97 541.5 1252.47 540.5C1249.97 539.5 1245.97 540.667 1244.47 542C1243.8 540.833 1242.97 537.7 1244.97 534.5H1209.97L1210 543.5C1210 549.969 1209.22 552.301 1210 557L1245.47 560.655H1245.97V547C1247.97 544.2 1251.03 544.622 1251.97 546.5C1252.91 548.378 1252.97 552 1252.47 555C1251.97 558 1248.14 561.167 1245.97 561.5Z" fill="url(#paint144_linear_839_3654)"/>
<path d="M1221.97 576V582C1224.47 582.833 1228.97 584 1226.97 582C1224.97 580 1226.97 571.5 1230.97 569.5C1232.3 568.834 1234.96 568.489 1238.04 568.09C1240.65 567.751 1243.56 567.372 1246.24 566.724L1245.97 561.5L1216 565.5C1220 568.5 1221.47 573.667 1221.97 576Z" fill="url(#paint145_linear_839_3654)"/>
<path d="M1203.97 600.5V598.5H1247.47V600.5H1203.97Z" fill="#C78369"/>
<path d="M1205.47 596V600H1245.47V596H1205.47Z" fill="#F28E59"/>
<path d="M1221.47 579.5C1220.67 580.7 1218.14 582.667 1216.97 583.5L1216.22 586H1234.9L1227.97 579.5H1221.47Z" fill="#E29D65"/>
<path d="M1210.47 592V598H1240.97V592H1237.47V586H1234.9L1235.97 587V588.5H1215.47L1216.22 586H1212.47V592H1210.47Z" fill="#E2894E"/>
<path d="M1235.97 588.5V587L1234.9 586H1216.22L1215.47 588.5H1235.97Z" fill="#E2894E"/>
<mask id="mask2_839_3654" style="mask-type:alpha" maskUnits="userSpaceOnUse" x="959" y="540" width="73" height="73">
<circle cx="995.5" cy="576.5" r="36" fill="#D9D9D9"/>
</mask>
<g mask="url(#mask2_839_3654)">
<circle cx="995.5" cy="576.5" r="36" fill="white"/>
<path d="M990.5 582C990.5 581.2 990.167 574.667 990 571.5L1006.5 575L1000 582L1006 587.5L992.5 597L984.5 587C986.5 585.667 990.5 582.8 990.5 582Z" fill="url(#paint146_linear_839_3654)"/>
<path d="M987 585L982.5 588L998 626.5L1004 626L1000 581.5L994.5 596.5L987 585Z" fill="#C2D4EC"/>
<path d="M985.5 586L957 600L963.5 615.5L999.5 622L985.5 586Z" fill="#151E3C"/>
<path d="M981.5 628C977.1 626.4 976 603.333 976.5 593.5C986.667 601.5 1008 621 1008 623C1008 625 1001 627.167 997.5 628C994 628.667 985.9 629.6 981.5 628Z" fill="url(#paint147_linear_839_3654)"/>
<path d="M1001.5 617.5L1000 581.5C1001.33 582.667 1004.9 585.7 1008.5 588.5C1012.1 591.3 1027.67 596 1035 598L1001.5 617.5Z" fill="#151E3C"/>
<path d="M1006 600C1001 606 1002 609.167 1001.5 614C1001.5 619.667 1002.6 630.5 1007 628.5C1011.4 626.5 1013.83 618.333 1014.5 614.5C1015.33 611 1016.9 602.6 1016.5 597C1016.1 591.4 1011.17 585.833 1009 585.5C1009.17 586.667 1011 594 1006 600Z" fill="url(#paint148_linear_839_3654)"/>
<path d="M1009 574.5L1009.5 562.5L994 560.5L990 572.5C992.5 574.5 998.1 578.7 1000.5 579.5C1002.9 580.3 1007.17 576.5 1009 574.5Z" fill="#F8C784"/>
<path d="M991.092 574.394C989.813 576.099 988.427 575.46 987.895 574.927C985.763 574.394 981.5 571.41 981.5 563.736C981.5 554.144 990.559 553.079 993.223 553.612C995.888 554.144 1002.82 554.677 1006.55 554.677C1010.28 554.677 1011.34 559.473 1011.34 561.605C1011.34 563.31 1008.14 565.157 1006.55 565.868C1005.66 566.223 1003.03 566.401 999.618 564.269C996.207 562.138 995.355 563.026 995.355 563.736C994.467 566.578 992.371 572.689 991.092 574.394Z" fill="url(#paint149_linear_839_3654)"/>
</g>
<path d="M457.5 584V505.5" stroke="#E0D8D1"/>
<circle cx="457" cy="503" r="9.5" fill="#B8CAC5"/>
<ellipse cx="457.5" cy="586" rx="6" ry="5.5" fill="#B8CAC5"/>
<path d="M455 908L463.37 954C463.037 959.5 461.47 971.9 457.87 977.5C454.27 983.1 461 986 455 994.5L448 1040" stroke="black"/>
<path d="M453.5 1040.5C451.167 1025 447.87 993.9 447.87 981.5C447.87 969.1 438 957.5 439.5 947C441 936.5 447.87 937.7 447.87 928.5C447.87 917 439.87 890.5 438.37 885.5M450 1041C432.5 1014.67 427.847 982.949 428.5 972.5C430 948.5 396.37 884 381.87 860" stroke="black"/>
<path d="M454.87 909.5C449.203 898.333 448.269 874.8 489.87 870C482.536 875 465.269 889.9 454.87 909.5Z" fill="#233254"/>
<path d="M489.87 870C490.37 881.333 484.07 905.1 454.87 909.5C465.269 889.9 482.536 875 489.87 870Z" fill="#1F2C4D"/>
<path d="M440.548 890.683C428.101 892.06 405.744 884.655 415.885 844.025C417.986 852.649 425.859 874.054 440.548 890.683Z" fill="#233254"/>
<path d="M415.885 844.025C426.67 847.544 446.701 861.802 440.548 890.683C425.859 874.054 417.986 852.649 415.885 844.025Z" fill="#1F2C4D"/>
<path d="M454.843 994.5C449.176 983.333 448.243 959.8 489.843 955C482.51 960 465.243 974.9 454.843 994.5Z" fill="#233254"/>
<path d="M489.843 955C490.343 966.333 484.043 990.1 454.843 994.5C465.243 974.9 482.51 960 489.843 955Z" fill="#1F2C4D"/>
<path d="M460.862 955C444.862 943 451.794 916.972 493.543 913.71C486.03 918.436 471.977 935.797 460.862 955Z" fill="#233254"/>
<path d="M493.543 913.71C493.625 925.054 497.87 936.5 460.862 955C471.977 935.797 486.03 918.436 493.543 913.71Z" fill="#1F2C4D"/>
<path d="M420.199 927.942C423.223 936.837 416.96 938.32 413.45 937.949C411.381 937.331 402.706 932.39 384.566 917.565C366.425 902.74 360.63 885.444 360 878.649C362.52 877.414 371.986 877.093 389.695 885.691C411.831 896.439 416.42 916.823 420.199 927.942Z" fill="#2C4F6A"/>
<path d="M360 879.02L419.929 935.355C417.23 940.173 405.622 937.208 383.486 916.453C365.777 899.849 360.45 884.579 360 879.02Z" fill="url(#paint150_linear_839_3654)"/>
<path d="M455.732 1031.92C458.586 1045.02 449.672 1046.61 440.87 1033.2C437.297 1031.54 432.171 1012.37 403.634 985.272C375.096 958.17 360.192 951.186 361.061 941.857C366 941.22 382.485 935.517 412.082 954.128C449.078 977.391 452.164 1015.55 455.732 1031.92Z" fill="url(#paint151_linear_839_3654)"/>
<path d="M360.951 942.352C360.951 942.352 396.24 953.862 416.357 975.648C436.474 997.434 453.047 1041.71 453.047 1041.71C446.72 1047.06 433.269 1023.28 399.236 986.653C372.009 957.349 360.122 949.959 360.951 942.352Z" fill="url(#paint152_linear_839_3654)"/>
<path d="M384.685 853.38C386.451 863.632 377.993 863.334 373.544 861.904C371.016 860.64 360.988 852.871 341.101 831.898C321.213 810.926 317.889 791.016 318.713 783.683C322.27 783.131 334.591 785.6 355.421 799.895C381.459 817.764 382.479 840.565 384.685 853.38Z" fill="#2C4F6A"/>
<path d="M318.624 784.073L382.549 861.096C377.895 865.363 363.597 858.803 339.972 830.409C321.073 807.694 317.865 790.053 318.624 784.073Z" fill="url(#paint153_linear_839_3654)"/>
<circle cx="3" cy="3" r="3" transform="matrix(-1 0 0 1 344 897)" fill="#B8CAC5"/>
<circle cx="1.5" cy="1.5" r="1.5" transform="matrix(-1 0 0 1 370 923)" fill="#B8CAC5"/>
<circle cx="1" cy="1" r="1" transform="matrix(-1 0 0 1 423 900)" fill="#B8CAC5"/>
<line x1="323.001" y1="1041.5" x2="1315" y2="1042.5" stroke="black"/>
<defs>
<filter id="filter0_f_839_3654" x="517.5" y="713.5" width="730" height="403" filterUnits="userSpaceOnUse" color-interpolation-filters="sRGB">
<feFlood flood-opacity="0" result="BackgroundImageFix"/>
<feBlend mode="normal" in="SourceGraphic" in2="BackgroundImageFix" result="shape"/>
<feGaussianBlur stdDeviation="32.5" result="effect1_foregroundBlur_839_3654"/>
</filter>
<linearGradient id="paint0_linear_839_3654" x1="882.5" y1="878.868" x2="882.5" y2="1051.5" gradientUnits="userSpaceOnUse">
<stop stop-color="#9B6765"/>
<stop offset="1" stop-color="#CD9896"/>
</linearGradient>
<linearGradient id="paint1_linear_839_3654" x1="885" y1="-57" x2="888.5" y2="901.5" gradientUnits="userSpaceOnUse">
<stop offset="0.0833333" stop-color="#315C71"/>
<stop offset="0.411933" stop-color="#28425F"/>
<stop offset="0.640625" stop-color="#1C2747"/>
<stop offset="1" stop-color="#121A37"/>
</linearGradient>
<linearGradient id="paint2_linear_839_3654" x1="559" y1="470.5" x2="559" y2="686.5" gradientUnits="userSpaceOnUse">
<stop stop-color="#315C71"/>
<stop offset="0.0833333" stop-color="#28425F"/>
<stop offset="0.53125" stop-color="#1C2747"/>
<stop offset="1" stop-color="#121A37"/>
</linearGradient>
<linearGradient id="paint3_linear_839_3654" x1="559" y1="470.5" x2="559" y2="686.5" gradientUnits="userSpaceOnUse">
<stop stop-color="#315C71"/>
<stop offset="0.0833333" stop-color="#28425F"/>
<stop offset="0.53125" stop-color="#1C2747"/>
<stop offset="1" stop-color="#121A37"/>
</linearGradient>
<linearGradient id="paint4_linear_839_3654" x1="559" y1="470.5" x2="559" y2="686.5" gradientUnits="userSpaceOnUse">
<stop stop-color="#315C71"/>
<stop offset="0.0833333" stop-color="#28425F"/>
<stop offset="0.53125" stop-color="#1C2747"/>
<stop offset="1" stop-color="#121A37"/>
</linearGradient>
<linearGradient id="paint5_linear_839_3654" x1="559" y1="470.5" x2="559" y2="686.5" gradientUnits="userSpaceOnUse">
<stop stop-color="#315C71"/>
<stop offset="0.0833333" stop-color="#28425F"/>
<stop offset="0.53125" stop-color="#1C2747"/>
<stop offset="1" stop-color="#121A37"/>
</linearGradient>
<linearGradient id="paint6_linear_839_3654" x1="559" y1="470.5" x2="559" y2="686.5" gradientUnits="userSpaceOnUse">
<stop stop-color="#315C71"/>
<stop offset="0.0833333" stop-color="#28425F"/>
<stop offset="0.53125" stop-color="#1C2747"/>
<stop offset="1" stop-color="#121A37"/>
</linearGradient>
<linearGradient id="paint7_linear_839_3654" x1="559" y1="470.5" x2="559" y2="686.5" gradientUnits="userSpaceOnUse">
<stop stop-color="#315C71"/>
<stop offset="0.0833333" stop-color="#28425F"/>
<stop offset="0.53125" stop-color="#1C2747"/>
<stop offset="1" stop-color="#121A37"/>
</linearGradient>
<linearGradient id="paint8_linear_839_3654" x1="559" y1="470.5" x2="559" y2="686.5" gradientUnits="userSpaceOnUse">
<stop stop-color="#315C71"/>
<stop offset="0.229167" stop-color="#28425F"/>
<stop offset="0.53125" stop-color="#1C2747"/>
<stop offset="1" stop-color="#121A37"/>
</linearGradient>
<linearGradient id="paint9_linear_839_3654" x1="1217.5" y1="477.5" x2="1217.5" y2="765.5" gradientUnits="userSpaceOnUse">
<stop stop-color="#315C71"/>
<stop offset="0.0833333" stop-color="#28425F"/>
<stop offset="0.53125" stop-color="#1C2747"/>
<stop offset="1" stop-color="#121A37"/>
</linearGradient>
<linearGradient id="paint10_linear_839_3654" x1="1217.5" y1="477.5" x2="1217.5" y2="765.5" gradientUnits="userSpaceOnUse">
<stop stop-color="#315C71"/>
<stop offset="0.0833333" stop-color="#28425F"/>
<stop offset="0.53125" stop-color="#1C2747"/>
<stop offset="1" stop-color="#121A37"/>
</linearGradient>
<linearGradient id="paint11_linear_839_3654" x1="1217.5" y1="477.5" x2="1217.5" y2="765.5" gradientUnits="userSpaceOnUse">
<stop stop-color="#315C71"/>
<stop offset="0.0833333" stop-color="#28425F"/>
<stop offset="0.53125" stop-color="#1C2747"/>
<stop offset="1" stop-color="#121A37"/>
</linearGradient>
<linearGradient id="paint12_linear_839_3654" x1="1217.5" y1="477.5" x2="1217.5" y2="765.5" gradientUnits="userSpaceOnUse">
<stop stop-color="#315C71"/>
<stop offset="0.0833333" stop-color="#28425F"/>
<stop offset="0.53125" stop-color="#1C2747"/>
<stop offset="1" stop-color="#121A37"/>
</linearGradient>
<linearGradient id="paint13_linear_839_3654" x1="1217.5" y1="477.5" x2="1217.5" y2="765.5" gradientUnits="userSpaceOnUse">
<stop stop-color="#315C71"/>
<stop offset="0.0833333" stop-color="#28425F"/>
<stop offset="0.53125" stop-color="#1C2747"/>
<stop offset="1" stop-color="#121A37"/>
</linearGradient>
<linearGradient id="paint14_linear_839_3654" x1="1217.5" y1="477.5" x2="1217.5" y2="765.5" gradientUnits="userSpaceOnUse">
<stop stop-color="#315C71"/>
<stop offset="0.0833333" stop-color="#28425F"/>
<stop offset="0.53125" stop-color="#1C2747"/>
<stop offset="1" stop-color="#121A37"/>
</linearGradient>
<linearGradient id="paint15_linear_839_3654" x1="1217.5" y1="477.5" x2="1217.5" y2="765.5" gradientUnits="userSpaceOnUse">
<stop stop-color="#315C71"/>
<stop offset="0.229167" stop-color="#28425F"/>
<stop offset="0.53125" stop-color="#1C2747"/>
<stop offset="1" stop-color="#121A37"/>
</linearGradient>
<linearGradient id="paint16_linear_839_3654" x1="1039.5" y1="467.5" x2="1039.5" y2="872.5" gradientUnits="userSpaceOnUse">
<stop stop-color="#F7A160"/>
<stop offset="0.244792" stop-color="#E79D6D"/>
<stop offset="0.703125" stop-color="#CA7E4B"/>
<stop offset="1" stop-color="#C56622"/>
</linearGradient>
<linearGradient id="paint17_linear_839_3654" x1="561.47" y1="507" x2="561.47" y2="510" gradientUnits="userSpaceOnUse">
<stop stop-color="#CE6C44"/>
<stop offset="1" stop-color="#FAA16A"/>
</linearGradient>
<linearGradient id="paint18_linear_839_3654" x1="537.47" y1="523.5" x2="599.47" y2="523.5" gradientUnits="userSpaceOnUse">
<stop stop-color="#DDBF82"/>
<stop offset="0.311612" stop-color="#F8C278"/>
<stop offset="0.341104" stop-color="#F59B66"/>
<stop offset="0.608642" stop-color="#F39761"/>
<stop offset="0.643401" stop-color="#E2BF80"/>
<stop offset="1" stop-color="#E6BF7F"/>
</linearGradient>
<linearGradient id="paint19_linear_839_3654" x1="551.97" y1="538" x2="555.47" y2="554.5" gradientUnits="userSpaceOnUse">
<stop stop-color="#C7593B"/>
<stop offset="0.227736" stop-color="#C75F3A"/>
<stop offset="0.435227" stop-color="#F39A5A"/>
<stop offset="0.656989" stop-color="#E07852"/>
<stop offset="0.856041" stop-color="#EF9B61"/>
<stop offset="1" stop-color="#D56948"/>
</linearGradient>
<linearGradient id="paint20_linear_839_3654" x1="1001" y1="716" x2="1001" y2="845" gradientUnits="userSpaceOnUse">
<stop stop-color="#E4B177"/>
<stop offset="0.588542" stop-color="#E9A77B"/>
<stop offset="0.854167" stop-color="#F0CF93"/>
</linearGradient>
<linearGradient id="paint21_linear_839_3654" x1="1171.5" y1="729" x2="1171.5" y2="927" gradientUnits="userSpaceOnUse">
<stop stop-color="#E4B177"/>
<stop offset="0.588542" stop-color="#E9A77B"/>
<stop offset="0.854167" stop-color="#F0CF93"/>
</linearGradient>
<linearGradient id="paint22_linear_839_3654" x1="1189.13" y1="937.5" x2="1297.63" y2="863.5" gradientUnits="userSpaceOnUse">
<stop stop-color="#1F2A4B"/>
<stop offset="1" stop-color="#2C4C6D"/>
</linearGradient>
<linearGradient id="paint23_linear_839_3654" x1="1244.57" y1="931.401" x2="1164.31" y2="1038.92" gradientUnits="userSpaceOnUse">
<stop stop-color="#2C4F6A"/>
<stop offset="0.0001" stop-color="#263456"/>
<stop offset="1" stop-color="#283B5F"/>
</linearGradient>
<linearGradient id="paint24_linear_839_3654" x1="1168.54" y1="1042.21" x2="1253.55" y2="939.051" gradientUnits="userSpaceOnUse">
<stop stop-color="#1B2340"/>
<stop offset="1" stop-color="#212E50"/>
</linearGradient>
<linearGradient id="paint25_linear_839_3654" x1="1240.1" y1="860.515" x2="1309.62" y2="792.598" gradientUnits="userSpaceOnUse">
<stop stop-color="#1F2A4B"/>
<stop offset="1" stop-color="#2C4C6D"/>
</linearGradient>
<linearGradient id="paint26_linear_839_3654" x1="1051.39" y1="1021.5" x2="1051.39" y2="1042" gradientUnits="userSpaceOnUse">
<stop stop-color="#202948"/>
<stop offset="1" stop-color="#0B1028"/>
</linearGradient>
<linearGradient id="paint27_linear_839_3654" x1="1129.25" y1="1020" x2="1129.25" y2="1041.5" gradientUnits="userSpaceOnUse">
<stop stop-color="#202948"/>
<stop offset="1" stop-color="#0B1028"/>
</linearGradient>
<linearGradient id="paint28_linear_839_3654" x1="1048" y1="925.5" x2="1134.5" y2="901" gradientUnits="userSpaceOnUse">
<stop stop-color="#192042"/>
<stop offset="0.499122" stop-color="#111731"/>
<stop offset="0.541497" stop-color="#1B2345"/>
<stop offset="0.857652" stop-color="#161D3C"/>
</linearGradient>
<linearGradient id="paint29_linear_839_3654" x1="1098.5" y1="683" x2="1098.5" y2="709" gradientUnits="userSpaceOnUse">
<stop stop-color="#EC8F5F"/>
<stop offset="1" stop-color="#FFC292"/>
</linearGradient>
<linearGradient id="paint30_linear_839_3654" x1="1091.5" y1="688" x2="1097" y2="696.5" gradientUnits="userSpaceOnUse">
<stop stop-color="#D9D9D9"/>
<stop offset="0.169471" stop-color="#7E3918"/>
<stop offset="1" stop-color="#F7AC7C"/>
</linearGradient>
<linearGradient id="paint31_linear_839_3654" x1="1061.5" y1="757" x2="1092.5" y2="742" gradientUnits="userSpaceOnUse">
<stop stop-color="#D3ECEF"/>
<stop offset="1" stop-color="#E2EDEE"/>
</linearGradient>
<linearGradient id="paint32_linear_839_3654" x1="1108.49" y1="701.5" x2="1114" y2="852.5" gradientUnits="userSpaceOnUse">
<stop stop-color="#2E5975"/>
<stop offset="0.567848" stop-color="#141C37"/>
<stop offset="1" stop-color="#17203F"/>
</linearGradient>
<linearGradient id="paint33_linear_839_3654" x1="1136.5" y1="730.5" x2="1136.5" y2="778.5" gradientUnits="userSpaceOnUse">
<stop stop-color="#181D3D"/>
<stop offset="1" stop-color="#18243F"/>
</linearGradient>
<linearGradient id="paint34_linear_839_3654" x1="1125.5" y1="711.463" x2="1125.5" y2="803" gradientUnits="userSpaceOnUse">
<stop stop-color="#2D4061"/>
<stop offset="0.630208" stop-color="#223252"/>
<stop offset="1" stop-color="#1C2B49"/>
</linearGradient>
<linearGradient id="paint35_linear_839_3654" x1="1082.5" y1="789" x2="1082.5" y2="811" gradientUnits="userSpaceOnUse">
<stop stop-color="#F5BF83"/>
<stop offset="0.677083" stop-color="#D77B48"/>
<stop offset="1" stop-color="#D4794D"/>
</linearGradient>
<linearGradient id="paint36_linear_839_3654" x1="1056.5" y1="743.5" x2="1022.5" y2="800.5" gradientUnits="userSpaceOnUse">
<stop stop-color="#0B1229"/>
<stop offset="1" stop-color="#252C4C"/>
</linearGradient>
<linearGradient id="paint37_linear_839_3654" x1="1034.23" y1="783" x2="1034.23" y2="801" gradientUnits="userSpaceOnUse">
<stop stop-color="#F5BF83"/>
<stop offset="0.677083" stop-color="#D77B48"/>
<stop offset="1" stop-color="#D4794D"/>
</linearGradient>
<linearGradient id="paint38_linear_839_3654" x1="1059.76" y1="707" x2="1059.76" y2="853.799" gradientUnits="userSpaceOnUse">
<stop stop-color="#334767"/>
<stop offset="0.536458" stop-color="#181D3A"/>
<stop offset="1" stop-color="#19244A"/>
</linearGradient>
<linearGradient id="paint39_linear_839_3654" x1="1079.5" y1="668.5" x2="1097" y2="693.5" gradientUnits="userSpaceOnUse">
<stop stop-color="#E7D097"/>
<stop offset="1" stop-color="#F6B672"/>
</linearGradient>
<linearGradient id="paint40_linear_839_3654" x1="1102.33" y1="676.557" x2="1102.33" y2="686.663" gradientUnits="userSpaceOnUse">
<stop stop-color="#EEA060"/>
<stop offset="1" stop-color="#EB8540"/>
</linearGradient>
<linearGradient id="paint41_linear_839_3654" x1="1075" y1="659" x2="1108.5" y2="681.5" gradientUnits="userSpaceOnUse">
<stop stop-color="#1B3A62"/>
<stop offset="0.9999" stop-color="#101222"/>
<stop offset="1" stop-color="#D9D9D9" stop-opacity="0"/>
<stop offset="1" stop-color="#101222"/>
</linearGradient>
<linearGradient id="paint42_linear_839_3654" x1="576.5" y1="619.5" x2="576.5" y2="765.5" gradientUnits="userSpaceOnUse">
<stop stop-color="#F4C774"/>
<stop offset="1" stop-color="#E9A77B"/>
</linearGradient>
<linearGradient id="paint43_linear_839_3654" x1="761" y1="700.5" x2="761" y2="878.5" gradientUnits="userSpaceOnUse">
<stop stop-color="#5B312F"/>
<stop offset="1" stop-color="#B17C7A"/>
</linearGradient>
<linearGradient id="paint44_linear_839_3654" x1="876.25" y1="569.15" x2="876.25" y2="634.137" gradientUnits="userSpaceOnUse">
<stop stop-color="#FFE6BE"/>
<stop offset="1" stop-color="#DD7F4E"/>
</linearGradient>
<linearGradient id="paint45_linear_839_3654" x1="731.75" y1="568.15" x2="731.75" y2="633.137" gradientUnits="userSpaceOnUse">
<stop stop-color="#FFE6BE"/>
<stop offset="1" stop-color="#DD7F4E"/>
</linearGradient>
<linearGradient id="paint46_linear_839_3654" x1="905" y1="634.15" x2="850.5" y2="641.15" gradientUnits="userSpaceOnUse">
<stop stop-color="#BC553B"/>
<stop offset="1" stop-color="#E37C50"/>
</linearGradient>
<linearGradient id="paint47_linear_839_3654" x1="760.5" y1="633.15" x2="706" y2="640.15" gradientUnits="userSpaceOnUse">
<stop stop-color="#BC553B"/>
<stop offset="1" stop-color="#E37C50"/>
</linearGradient>
<linearGradient id="paint48_linear_839_3654" x1="809.724" y1="560.523" x2="809.724" y2="675.15" gradientUnits="userSpaceOnUse">
<stop stop-color="#F0A778"/>
<stop offset="0.0701784" stop-color="#EA8954"/>
<stop offset="0.116468" stop-color="#E7803C"/>
<stop offset="0.177083" stop-color="#EFA16D"/>
<stop offset="1" stop-color="#EE9361"/>
</linearGradient>
<linearGradient id="paint49_linear_839_3654" x1="810.062" y1="673.15" x2="810.062" y2="685.728" gradientUnits="userSpaceOnUse">
<stop stop-color="#D86E48"/>
<stop offset="1" stop-color="#B55130"/>
</linearGradient>
<linearGradient id="paint50_linear_839_3654" x1="808.009" y1="682.65" x2="808.009" y2="694.201" gradientUnits="userSpaceOnUse">
<stop stop-color="#F0AF6A"/>
<stop offset="1" stop-color="#F29A64"/>
</linearGradient>
<linearGradient id="paint51_linear_839_3654" x1="809.054" y1="692.15" x2="809.054" y2="700.87" gradientUnits="userSpaceOnUse">
<stop stop-color="#EF945C"/>
<stop offset="1" stop-color="#EB9A64"/>
</linearGradient>
<linearGradient id="paint52_linear_839_3654" x1="810.5" y1="699.15" x2="810.5" y2="706.65" gradientUnits="userSpaceOnUse">
<stop stop-color="#F6B872"/>
<stop offset="1" stop-color="#F8BC78"/>
</linearGradient>
<linearGradient id="paint53_linear_839_3654" x1="793.938" y1="795.299" x2="775.541" y2="786.137" gradientUnits="userSpaceOnUse">
<stop stop-color="#FFECA7"/>
<stop offset="1" stop-color="#DD8F4B"/>
</linearGradient>
<linearGradient id="paint54_linear_839_3654" x1="825" y1="788.81" x2="804.545" y2="790.812" gradientUnits="userSpaceOnUse">
<stop stop-color="#FFECA7"/>
<stop offset="1" stop-color="#DD8F4B"/>
</linearGradient>
<linearGradient id="paint55_linear_839_3654" x1="720.5" y1="935.5" x2="697" y2="1018.5" gradientUnits="userSpaceOnUse">
<stop stop-color="#E08258"/>
<stop offset="1" stop-color="#F5B576"/>
</linearGradient>
<linearGradient id="paint56_linear_839_3654" x1="777.64" y1="907" x2="777.64" y2="1027" gradientUnits="userSpaceOnUse">
<stop stop-color="#D27657"/>
<stop offset="1" stop-color="#F4B06A"/>
</linearGradient>
<linearGradient id="paint57_linear_839_3654" x1="746.144" y1="776.5" x2="746.144" y2="963.493" gradientUnits="userSpaceOnUse">
<stop stop-color="#18203F"/>
<stop offset="1" stop-color="#1C2646"/>
</linearGradient>
<linearGradient id="paint58_linear_839_3654" x1="753.5" y1="759" x2="706.5" y2="889.5" gradientUnits="userSpaceOnUse">
<stop stop-color="#0E1432"/>
<stop offset="1" stop-color="#2C375E"/>
</linearGradient>
<linearGradient id="paint59_linear_839_3654" x1="748" y1="680.5" x2="748" y2="703.5" gradientUnits="userSpaceOnUse">
<stop stop-color="#E8BA87"/>
<stop offset="1" stop-color="#EC9956"/>
</linearGradient>
<linearGradient id="paint60_linear_839_3654" x1="759.75" y1="701.5" x2="766" y2="781.5" gradientUnits="userSpaceOnUse">
<stop stop-color="#E3EEF4"/>
<stop offset="1" stop-color="#97BFDD"/>
</linearGradient>
<linearGradient id="paint61_linear_839_3654" x1="779.368" y1="711.5" x2="779.368" y2="784.151" gradientUnits="userSpaceOnUse">
<stop stop-color="#2C589D"/>
<stop offset="1" stop-color="#121A33"/>
</linearGradient>
<linearGradient id="paint62_linear_839_3654" x1="766.842" y1="707.5" x2="766.842" y2="791.667" gradientUnits="userSpaceOnUse">
<stop stop-color="#2D596C"/>
<stop offset="1" stop-color="#1C2A48"/>
</linearGradient>
<linearGradient id="paint63_linear_839_3654" x1="733.653" y1="654.915" x2="733.653" y2="791.817" gradientUnits="userSpaceOnUse">
<stop stop-color="#33607E"/>
<stop offset="1" stop-color="#161B37"/>
</linearGradient>
<linearGradient id="paint64_linear_839_3654" x1="757.706" y1="658.86" x2="757.706" y2="679" gradientUnits="userSpaceOnUse">
<stop stop-color="#2A5D76"/>
<stop offset="1" stop-color="#1F3849"/>
</linearGradient>
<linearGradient id="paint65_linear_839_3654" x1="748.883" y1="674.428" x2="748.883" y2="684.38" gradientUnits="userSpaceOnUse">
<stop stop-color="#E4A666"/>
<stop offset="1" stop-color="#F4946A"/>
</linearGradient>
<linearGradient id="paint66_linear_839_3654" x1="661" y1="756.5" x2="661" y2="794.5" gradientUnits="userSpaceOnUse">
<stop stop-color="#1C2C4A"/>
<stop offset="1" stop-color="#121836"/>
</linearGradient>
<linearGradient id="paint67_linear_839_3654" x1="561.246" y1="901.5" x2="561.246" y2="1006.5" gradientUnits="userSpaceOnUse">
<stop stop-color="#D79F84"/>
<stop offset="1" stop-color="#F9BA73"/>
</linearGradient>
<linearGradient id="paint68_linear_839_3654" x1="604.413" y1="922.027" x2="647.57" y2="1017.75" gradientUnits="userSpaceOnUse">
<stop stop-color="#D79F84"/>
<stop offset="1" stop-color="#F9BA73"/>
</linearGradient>
<linearGradient id="paint69_linear_839_3654" x1="548" y1="1003.5" x2="548" y2="1042.11" gradientUnits="userSpaceOnUse">
<stop stop-color="#152746"/>
<stop offset="1" stop-color="#16284A"/>
</linearGradient>
<linearGradient id="paint70_linear_839_3654" x1="534.5" y1="1007" x2="545.5" y2="1040" gradientUnits="userSpaceOnUse">
<stop stop-color="#33577B"/>
<stop offset="0.520833" stop-color="#1A3252"/>
<stop offset="1" stop-color="#223C59"/>
</linearGradient>
<linearGradient id="paint71_linear_839_3654" x1="598.25" y1="812.5" x2="598.25" y2="949.049" gradientUnits="userSpaceOnUse">
<stop stop-color="#141935"/>
<stop offset="1" stop-color="#191F40"/>
</linearGradient>
<linearGradient id="paint72_linear_839_3654" x1="624.5" y1="672.5" x2="606.5" y2="708.5" gradientUnits="userSpaceOnUse">
<stop stop-color="#F9C781"/>
<stop offset="0.617188" stop-color="#F6C782"/>
<stop offset="0.71875" stop-color="#F0BC85"/>
<stop offset="0.869152" stop-color="#EB9F52"/>
</linearGradient>
<linearGradient id="paint73_linear_839_3654" x1="653.5" y1="737" x2="633.5" y2="754" gradientUnits="userSpaceOnUse">
<stop stop-color="#17293F"/>
<stop offset="1" stop-color="#274066"/>
</linearGradient>
<linearGradient id="paint74_linear_839_3654" x1="651" y1="749" x2="636" y2="770.5" gradientUnits="userSpaceOnUse">
<stop stop-color="#FFECA7"/>
<stop offset="1" stop-color="#DD8F4B"/>
</linearGradient>
<linearGradient id="paint75_linear_839_3654" x1="598" y1="715" x2="551.5" y2="894" gradientUnits="userSpaceOnUse">
<stop stop-color="#254669"/>
<stop offset="0.447758" stop-color="#161D3C"/>
<stop offset="1" stop-color="#2F5071"/>
</linearGradient>
<linearGradient id="paint76_linear_839_3654" x1="586.5" y1="711" x2="601.5" y2="781.5" gradientUnits="userSpaceOnUse">
<stop stop-color="#315D77"/>
<stop offset="1" stop-color="#284360"/>
</linearGradient>
<linearGradient id="paint77_linear_839_3654" x1="573.5" y1="674.5" x2="595" y2="704" gradientUnits="userSpaceOnUse">
<stop stop-color="#305C76"/>
<stop offset="1" stop-color="#1C1E35"/>
</linearGradient>
<radialGradient id="paint78_radial_839_3654" cx="0" cy="0" r="1" gradientUnits="userSpaceOnUse" gradientTransform="translate(834 605) rotate(90) scale(2.5)">
<stop stop-color="#EFB177"/>
<stop offset="1" stop-color="#C36156"/>
</radialGradient>
<radialGradient id="paint79_radial_839_3654" cx="0" cy="0" r="1" gradientUnits="userSpaceOnUse" gradientTransform="translate(834 605) rotate(90) scale(2.5)">
<stop stop-color="#EFB177"/>
<stop offset="1" stop-color="#C36156"/>
</radialGradient>
<radialGradient id="paint80_radial_839_3654" cx="0" cy="0" r="1" gradientUnits="userSpaceOnUse" gradientTransform="translate(834 605) rotate(90) scale(2.5)">
<stop stop-color="#EFB177"/>
<stop offset="1" stop-color="#C36156"/>
</radialGradient>
<radialGradient id="paint81_radial_839_3654" cx="0" cy="0" r="1" gradientUnits="userSpaceOnUse" gradientTransform="translate(834 605) rotate(90) scale(2.5)">
<stop stop-color="#EFB177"/>
<stop offset="1" stop-color="#C36156"/>
</radialGradient>
<radialGradient id="paint82_radial_839_3654" cx="0" cy="0" r="1" gradientUnits="userSpaceOnUse" gradientTransform="translate(834 605) rotate(90) scale(2.5)">
<stop stop-color="#EFB177"/>
<stop offset="1" stop-color="#C36156"/>
</radialGradient>
<radialGradient id="paint83_radial_839_3654" cx="0" cy="0" r="1" gradientUnits="userSpaceOnUse" gradientTransform="translate(834 605) rotate(90) scale(2.5)">
<stop stop-color="#EFB177"/>
<stop offset="1" stop-color="#C36156"/>
</radialGradient>
<radialGradient id="paint84_radial_839_3654" cx="0" cy="0" r="1" gradientUnits="userSpaceOnUse" gradientTransform="translate(834 605) rotate(90) scale(2.5)">
<stop stop-color="#EFB177"/>
<stop offset="1" stop-color="#C36156"/>
</radialGradient>
<radialGradient id="paint85_radial_839_3654" cx="0" cy="0" r="1" gradientUnits="userSpaceOnUse" gradientTransform="translate(937.5 296.5) rotate(90) scale(2.5)">
<stop stop-color="#EFB177"/>
<stop offset="1" stop-color="#C36156"/>
</radialGradient>
<radialGradient id="paint86_radial_839_3654" cx="0" cy="0" r="1" gradientUnits="userSpaceOnUse" gradientTransform="translate(937.5 296.5) rotate(90) scale(2.5)">
<stop stop-color="#EFB177"/>
<stop offset="1" stop-color="#C36156"/>
</radialGradient>
<radialGradient id="paint87_radial_839_3654" cx="0" cy="0" r="1" gradientUnits="userSpaceOnUse" gradientTransform="translate(937.5 296.5) rotate(90) scale(2.5)">
<stop stop-color="#EFB177"/>
<stop offset="1" stop-color="#C36156"/>
</radialGradient>
<radialGradient id="paint88_radial_839_3654" cx="0" cy="0" r="1" gradientUnits="userSpaceOnUse" gradientTransform="translate(937.5 296.5) rotate(90) scale(2.5)">
<stop stop-color="#EFB177"/>
<stop offset="1" stop-color="#C36156"/>
</radialGradient>
<radialGradient id="paint89_radial_839_3654" cx="0" cy="0" r="1" gradientUnits="userSpaceOnUse" gradientTransform="translate(937.5 296.5) rotate(90) scale(2.5)">
<stop stop-color="#EFB177"/>
<stop offset="1" stop-color="#C36156"/>
</radialGradient>
<radialGradient id="paint90_radial_839_3654" cx="0" cy="0" r="1" gradientUnits="userSpaceOnUse" gradientTransform="translate(937.5 296.5) rotate(90) scale(2.5)">
<stop stop-color="#EFB177"/>
<stop offset="1" stop-color="#C36156"/>
</radialGradient>
<radialGradient id="paint91_radial_839_3654" cx="0" cy="0" r="1" gradientUnits="userSpaceOnUse" gradientTransform="translate(937.5 296.5) rotate(90) scale(2.5)">
<stop stop-color="#EFB177"/>
<stop offset="1" stop-color="#C36156"/>
</radialGradient>
<radialGradient id="paint92_radial_839_3654" cx="0" cy="0" r="1" gradientUnits="userSpaceOnUse" gradientTransform="translate(547.5 274.5) rotate(90) scale(2.5)">
<stop stop-color="#EFB177"/>
<stop offset="1" stop-color="#C36156"/>
</radialGradient>
<radialGradient id="paint93_radial_839_3654" cx="0" cy="0" r="1" gradientUnits="userSpaceOnUse" gradientTransform="translate(547.5 274.5) rotate(90) scale(2.5)">
<stop stop-color="#EFB177"/>
<stop offset="1" stop-color="#C36156"/>
</radialGradient>
<radialGradient id="paint94_radial_839_3654" cx="0" cy="0" r="1" gradientUnits="userSpaceOnUse" gradientTransform="translate(547.5 274.5) rotate(90) scale(2.5)">
<stop stop-color="#EFB177"/>
<stop offset="1" stop-color="#C36156"/>
</radialGradient>
<radialGradient id="paint95_radial_839_3654" cx="0" cy="0" r="1" gradientUnits="userSpaceOnUse" gradientTransform="translate(547.5 274.5) rotate(90) scale(2.5)">
<stop stop-color="#EFB177"/>
<stop offset="1" stop-color="#C36156"/>
</radialGradient>
<radialGradient id="paint96_radial_839_3654" cx="0" cy="0" r="1" gradientUnits="userSpaceOnUse" gradientTransform="translate(547.5 274.5) rotate(90) scale(2.5)">
<stop stop-color="#EFB177"/>
<stop offset="1" stop-color="#C36156"/>
</radialGradient>
<radialGradient id="paint97_radial_839_3654" cx="0" cy="0" r="1" gradientUnits="userSpaceOnUse" gradientTransform="translate(547.5 274.5) rotate(90) scale(2.5)">
<stop stop-color="#EFB177"/>
<stop offset="1" stop-color="#C36156"/>
</radialGradient>
<radialGradient id="paint98_radial_839_3654" cx="0" cy="0" r="1" gradientUnits="userSpaceOnUse" gradientTransform="translate(547.5 274.5) rotate(90) scale(2.5)">
<stop stop-color="#EFB177"/>
<stop offset="1" stop-color="#C36156"/>
</radialGradient>
<radialGradient id="paint99_radial_839_3654" cx="0" cy="0" r="1" gradientUnits="userSpaceOnUse" gradientTransform="translate(1077.5 397.5) rotate(90) scale(2.5)">
<stop stop-color="#EFB177"/>
<stop offset="1" stop-color="#C36156"/>
</radialGradient>
<radialGradient id="paint100_radial_839_3654" cx="0" cy="0" r="1" gradientUnits="userSpaceOnUse" gradientTransform="translate(1077.5 397.5) rotate(90) scale(2.5)">
<stop stop-color="#EFB177"/>
<stop offset="1" stop-color="#C36156"/>
</radialGradient>
<radialGradient id="paint101_radial_839_3654" cx="0" cy="0" r="1" gradientUnits="userSpaceOnUse" gradientTransform="translate(1077.5 397.5) rotate(90) scale(2.5)">
<stop stop-color="#EFB177"/>
<stop offset="1" stop-color="#C36156"/>
</radialGradient>
<radialGradient id="paint102_radial_839_3654" cx="0" cy="0" r="1" gradientUnits="userSpaceOnUse" gradientTransform="translate(1077.5 397.5) rotate(90) scale(2.5)">
<stop stop-color="#EFB177"/>
<stop offset="1" stop-color="#C36156"/>
</radialGradient>
<radialGradient id="paint103_radial_839_3654" cx="0" cy="0" r="1" gradientUnits="userSpaceOnUse" gradientTransform="translate(1077.5 397.5) rotate(90) scale(2.5)">
<stop stop-color="#EFB177"/>
<stop offset="1" stop-color="#C36156"/>
</radialGradient>
<radialGradient id="paint104_radial_839_3654" cx="0" cy="0" r="1" gradientUnits="userSpaceOnUse" gradientTransform="translate(1077.5 397.5) rotate(90) scale(2.5)">
<stop stop-color="#EFB177"/>
<stop offset="1" stop-color="#C36156"/>
</radialGradient>
<radialGradient id="paint105_radial_839_3654" cx="0" cy="0" r="1" gradientUnits="userSpaceOnUse" gradientTransform="translate(1077.5 397.5) rotate(90) scale(2.5)">
<stop stop-color="#EFB177"/>
<stop offset="1" stop-color="#C36156"/>
</radialGradient>
<radialGradient id="paint106_radial_839_3654" cx="0" cy="0" r="1" gradientUnits="userSpaceOnUse" gradientTransform="translate(872.056 687.968) rotate(90) scale(1.51105)">
<stop stop-color="#EFB177"/>
<stop offset="1" stop-color="#C36156"/>
</radialGradient>
<radialGradient id="paint107_radial_839_3654" cx="0" cy="0" r="1" gradientUnits="userSpaceOnUse" gradientTransform="translate(872.056 687.968) rotate(90) scale(1.51105)">
<stop stop-color="#EFB177"/>
<stop offset="1" stop-color="#C36156"/>
</radialGradient>
<radialGradient id="paint108_radial_839_3654" cx="0" cy="0" r="1" gradientUnits="userSpaceOnUse" gradientTransform="translate(872.056 687.968) rotate(90) scale(1.51105)">
<stop stop-color="#EFB177"/>
<stop offset="1" stop-color="#C36156"/>
</radialGradient>
<radialGradient id="paint109_radial_839_3654" cx="0" cy="0" r="1" gradientUnits="userSpaceOnUse" gradientTransform="translate(872.056 687.968) rotate(90) scale(1.51105)">
<stop stop-color="#EFB177"/>
<stop offset="1" stop-color="#C36156"/>
</radialGradient>
<radialGradient id="paint110_radial_839_3654" cx="0" cy="0" r="1" gradientUnits="userSpaceOnUse" gradientTransform="translate(872.056 687.968) rotate(90) scale(1.51105)">
<stop stop-color="#EFB177"/>
<stop offset="1" stop-color="#C36156"/>
</radialGradient>
<radialGradient id="paint111_radial_839_3654" cx="0" cy="0" r="1" gradientUnits="userSpaceOnUse" gradientTransform="translate(872.056 687.968) rotate(90) scale(1.51105)">
<stop stop-color="#EFB177"/>
<stop offset="1" stop-color="#C36156"/>
</radialGradient>
<radialGradient id="paint112_radial_839_3654" cx="0" cy="0" r="1" gradientUnits="userSpaceOnUse" gradientTransform="translate(872.056 687.968) rotate(90) scale(1.51105)">
<stop stop-color="#EFB177"/>
<stop offset="1" stop-color="#C36156"/>
</radialGradient>
<radialGradient id="paint113_radial_839_3654" cx="0" cy="0" r="1" gradientUnits="userSpaceOnUse" gradientTransform="translate(901.53 661.478) rotate(90) scale(0.937229)">
<stop stop-color="#EFB177"/>
<stop offset="1" stop-color="#C36156"/>
</radialGradient>
<radialGradient id="paint114_radial_839_3654" cx="0" cy="0" r="1" gradientUnits="userSpaceOnUse" gradientTransform="translate(901.53 661.478) rotate(90) scale(0.937229)">
<stop stop-color="#EFB177"/>
<stop offset="1" stop-color="#C36156"/>
</radialGradient>
<radialGradient id="paint115_radial_839_3654" cx="0" cy="0" r="1" gradientUnits="userSpaceOnUse" gradientTransform="translate(901.53 661.478) rotate(90) scale(0.937229)">
<stop stop-color="#EFB177"/>
<stop offset="1" stop-color="#C36156"/>
</radialGradient>
<radialGradient id="paint116_radial_839_3654" cx="0" cy="0" r="1" gradientUnits="userSpaceOnUse" gradientTransform="translate(901.53 661.478) rotate(90) scale(0.937229)">
<stop stop-color="#EFB177"/>
<stop offset="1" stop-color="#C36156"/>
</radialGradient>
<radialGradient id="paint117_radial_839_3654" cx="0" cy="0" r="1" gradientUnits="userSpaceOnUse" gradientTransform="translate(901.53 661.478) rotate(90) scale(0.937229)">
<stop stop-color="#EFB177"/>
<stop offset="1" stop-color="#C36156"/>
</radialGradient>
<radialGradient id="paint118_radial_839_3654" cx="0" cy="0" r="1" gradientUnits="userSpaceOnUse" gradientTransform="translate(901.53 661.478) rotate(90) scale(0.937229)">
<stop stop-color="#EFB177"/>
<stop offset="1" stop-color="#C36156"/>
</radialGradient>
<radialGradient id="paint119_radial_839_3654" cx="0" cy="0" r="1" gradientUnits="userSpaceOnUse" gradientTransform="translate(901.53 661.478) rotate(90) scale(0.937229)">
<stop stop-color="#EFB177"/>
<stop offset="1" stop-color="#C36156"/>
</radialGradient>
<radialGradient id="paint120_radial_839_3654" cx="0" cy="0" r="1" gradientUnits="userSpaceOnUse" gradientTransform="translate(510.479 603.478) rotate(90) scale(0.937229)">
<stop stop-color="#EFB177"/>
<stop offset="1" stop-color="#C36156"/>
</radialGradient>
<radialGradient id="paint121_radial_839_3654" cx="0" cy="0" r="1" gradientUnits="userSpaceOnUse" gradientTransform="translate(510.479 603.478) rotate(90) scale(0.937229)">
<stop stop-color="#EFB177"/>
<stop offset="1" stop-color="#C36156"/>
</radialGradient>
<radialGradient id="paint122_radial_839_3654" cx="0" cy="0" r="1" gradientUnits="userSpaceOnUse" gradientTransform="translate(510.479 603.478) rotate(90) scale(0.937229)">
<stop stop-color="#EFB177"/>
<stop offset="1" stop-color="#C36156"/>
</radialGradient>
<radialGradient id="paint123_radial_839_3654" cx="0" cy="0" r="1" gradientUnits="userSpaceOnUse" gradientTransform="translate(510.479 603.478) rotate(90) scale(0.937229)">
<stop stop-color="#EFB177"/>
<stop offset="1" stop-color="#C36156"/>
</radialGradient>
<radialGradient id="paint124_radial_839_3654" cx="0" cy="0" r="1" gradientUnits="userSpaceOnUse" gradientTransform="translate(510.479 603.478) rotate(90) scale(0.937229)">
<stop stop-color="#EFB177"/>
<stop offset="1" stop-color="#C36156"/>
</radialGradient>
<radialGradient id="paint125_radial_839_3654" cx="0" cy="0" r="1" gradientUnits="userSpaceOnUse" gradientTransform="translate(510.479 603.478) rotate(90) scale(0.937229)">
<stop stop-color="#EFB177"/>
<stop offset="1" stop-color="#C36156"/>
</radialGradient>
<radialGradient id="paint126_radial_839_3654" cx="0" cy="0" r="1" gradientUnits="userSpaceOnUse" gradientTransform="translate(510.479 603.478) rotate(90) scale(0.937229)">
<stop stop-color="#EFB177"/>
<stop offset="1" stop-color="#C36156"/>
</radialGradient>
<radialGradient id="paint127_radial_839_3654" cx="0" cy="0" r="1" gradientUnits="userSpaceOnUse" gradientTransform="translate(1011.48 879.478) rotate(90) scale(0.937229)">
<stop stop-color="#EFB177"/>
<stop offset="1" stop-color="#C36156"/>
</radialGradient>
<radialGradient id="paint128_radial_839_3654" cx="0" cy="0" r="1" gradientUnits="userSpaceOnUse" gradientTransform="translate(1011.48 879.478) rotate(90) scale(0.937229)">
<stop stop-color="#EFB177"/>
<stop offset="1" stop-color="#C36156"/>
</radialGradient>
<radialGradient id="paint129_radial_839_3654" cx="0" cy="0" r="1" gradientUnits="userSpaceOnUse" gradientTransform="translate(1011.48 879.478) rotate(90) scale(0.937229)">
<stop stop-color="#EFB177"/>
<stop offset="1" stop-color="#C36156"/>
</radialGradient>
<radialGradient id="paint130_radial_839_3654" cx="0" cy="0" r="1" gradientUnits="userSpaceOnUse" gradientTransform="translate(1011.48 879.478) rotate(90) scale(0.937229)">
<stop stop-color="#EFB177"/>
<stop offset="1" stop-color="#C36156"/>
</radialGradient>
<radialGradient id="paint131_radial_839_3654" cx="0" cy="0" r="1" gradientUnits="userSpaceOnUse" gradientTransform="translate(1011.48 879.478) rotate(90) scale(0.937229)">
<stop stop-color="#EFB177"/>
<stop offset="1" stop-color="#C36156"/>
</radialGradient>
<radialGradient id="paint132_radial_839_3654" cx="0" cy="0" r="1" gradientUnits="userSpaceOnUse" gradientTransform="translate(1011.48 879.478) rotate(90) scale(0.937229)">
<stop stop-color="#EFB177"/>
<stop offset="1" stop-color="#C36156"/>
</radialGradient>
<radialGradient id="paint133_radial_839_3654" cx="0" cy="0" r="1" gradientUnits="userSpaceOnUse" gradientTransform="translate(1011.48 879.478) rotate(90) scale(0.937229)">
<stop stop-color="#EFB177"/>
<stop offset="1" stop-color="#C36156"/>
</radialGradient>
<radialGradient id="paint134_radial_839_3654" cx="0" cy="0" r="1" gradientUnits="userSpaceOnUse" gradientTransform="translate(665.479 877.478) rotate(90) scale(0.937229)">
<stop stop-color="#EFB177"/>
<stop offset="1" stop-color="#C36156"/>
</radialGradient>
<radialGradient id="paint135_radial_839_3654" cx="0" cy="0" r="1" gradientUnits="userSpaceOnUse" gradientTransform="translate(665.479 877.478) rotate(90) scale(0.937229)">
<stop stop-color="#EFB177"/>
<stop offset="1" stop-color="#C36156"/>
</radialGradient>
<radialGradient id="paint136_radial_839_3654" cx="0" cy="0" r="1" gradientUnits="userSpaceOnUse" gradientTransform="translate(665.479 877.478) rotate(90) scale(0.937229)">
<stop stop-color="#EFB177"/>
<stop offset="1" stop-color="#C36156"/>
</radialGradient>
<radialGradient id="paint137_radial_839_3654" cx="0" cy="0" r="1" gradientUnits="userSpaceOnUse" gradientTransform="translate(665.479 877.478) rotate(90) scale(0.937229)">
<stop stop-color="#EFB177"/>
<stop offset="1" stop-color="#C36156"/>
</radialGradient>
<radialGradient id="paint138_radial_839_3654" cx="0" cy="0" r="1" gradientUnits="userSpaceOnUse" gradientTransform="translate(665.479 877.478) rotate(90) scale(0.937229)">
<stop stop-color="#EFB177"/>
<stop offset="1" stop-color="#C36156"/>
</radialGradient>
<radialGradient id="paint139_radial_839_3654" cx="0" cy="0" r="1" gradientUnits="userSpaceOnUse" gradientTransform="translate(665.479 877.478) rotate(90) scale(0.937229)">
<stop stop-color="#EFB177"/>
<stop offset="1" stop-color="#C36156"/>
</radialGradient>
<radialGradient id="paint140_radial_839_3654" cx="0" cy="0" r="1" gradientUnits="userSpaceOnUse" gradientTransform="translate(665.479 877.478) rotate(90) scale(0.937229)">
<stop stop-color="#EFB177"/>
<stop offset="1" stop-color="#C36156"/>
</radialGradient>
<linearGradient id="paint141_linear_839_3654" x1="749.25" y1="428" x2="749.25" y2="429" gradientUnits="userSpaceOnUse">
<stop stop-color="#E4B177"/>
<stop offset="0.588542" stop-color="#E9A77B"/>
<stop offset="0.854167" stop-color="#CD7356"/>
</linearGradient>
<linearGradient id="paint142_linear_839_3654" x1="749.25" y1="432.5" x2="749.25" y2="433.5" gradientUnits="userSpaceOnUse">
<stop stop-color="#E4B177"/>
<stop offset="0.588542" stop-color="#E9A77B"/>
<stop offset="0.854167" stop-color="#CD7356"/>
</linearGradient>
<linearGradient id="paint143_linear_839_3654" x1="1232.41" y1="532" x2="1232.41" y2="535" gradientUnits="userSpaceOnUse">
<stop stop-color="#CE6C44"/>
<stop offset="1" stop-color="#FAA16A"/>
</linearGradient>
<linearGradient id="paint144_linear_839_3654" x1="1210.14" y1="548.5" x2="1267.67" y2="548.5" gradientUnits="userSpaceOnUse">
<stop stop-color="#DDBF82"/>
<stop offset="0.311612" stop-color="#F8C278"/>
<stop offset="0.341104" stop-color="#F59B66"/>
<stop offset="0.608642" stop-color="#F39761"/>
<stop offset="0.643401" stop-color="#E2BF80"/>
<stop offset="1" stop-color="#E6BF7F"/>
</linearGradient>
<linearGradient id="paint145_linear_839_3654" x1="1220.97" y1="563" x2="1224.47" y2="579.5" gradientUnits="userSpaceOnUse">
<stop stop-color="#C7593B"/>
<stop offset="0.227736" stop-color="#C75F3A"/>
<stop offset="0.435227" stop-color="#F39A5A"/>
<stop offset="0.656989" stop-color="#E07852"/>
<stop offset="0.856041" stop-color="#EF9B61"/>
<stop offset="1" stop-color="#D56948"/>
</linearGradient>
<linearGradient id="paint146_linear_839_3654" x1="1002" y1="574" x2="986" y2="595" gradientUnits="userSpaceOnUse">
<stop offset="0.140625" stop-color="#CE713E"/>
<stop offset="0.171875" stop-color="#D77D57"/>
<stop offset="0.322917" stop-color="#ECAF7F"/>
<stop offset="0.536458" stop-color="#ECAF7F"/>
<stop offset="1" stop-color="#FCAD77"/>
</linearGradient>
<linearGradient id="paint147_linear_839_3654" x1="992.647" y1="596.5" x2="992.647" y2="628.883" gradientUnits="userSpaceOnUse">
<stop stop-color="#EEDAA4"/>
<stop offset="0.588749" stop-color="#EB9865"/>
</linearGradient>
<linearGradient id="paint148_linear_839_3654" x1="1009.03" y1="589" x2="1009.03" y2="628.743" gradientUnits="userSpaceOnUse">
<stop stop-color="#EEDAA4"/>
<stop offset="0.588749" stop-color="#EB9865"/>
</linearGradient>
<linearGradient id="paint149_linear_839_3654" x1="1009.21" y1="556.164" x2="982.033" y2="570.552" gradientUnits="userSpaceOnUse">
<stop stop-color="#2B385D"/>
<stop offset="1" stop-color="#000A16"/>
</linearGradient>
<linearGradient id="paint150_linear_839_3654" x1="417.77" y1="936.837" x2="348.929" y2="902.64" gradientUnits="userSpaceOnUse">
<stop stop-color="#1F2A4B"/>
<stop offset="1" stop-color="#2C4C6D"/>
</linearGradient>
<linearGradient id="paint151_linear_839_3654" x1="362.845" y1="941.685" x2="448.832" y2="1042.52" gradientUnits="userSpaceOnUse">
<stop stop-color="#2C4F6A"/>
<stop offset="0.0001" stop-color="#263456"/>
<stop offset="1" stop-color="#283B5F"/>
</linearGradient>
<linearGradient id="paint152_linear_839_3654" x1="448.688" y1="1042.82" x2="357.684" y2="946.858" gradientUnits="userSpaceOnUse">
<stop stop-color="#1B2340"/>
<stop offset="1" stop-color="#212E50"/>
</linearGradient>
<linearGradient id="paint153_linear_839_3654" x1="379.398" y1="862.015" x2="309.879" y2="794.098" gradientUnits="userSpaceOnUse">
<stop stop-color="#1F2A4B"/>
<stop offset="1" stop-color="#2C4C6D"/>
</linearGradient>
</defs>
</svg>
